<?xml version="1.0" standalone="no"?>
<!DOCTYPE svg PUBLIC "-//W3C//DTD SVG 1.1//EN" "http://www.w3.org/Graphics/SVG/1.1/DTD/svg11.dtd" >
<svg xmlns="http://www.w3.org/2000/svg">
<metadata></metadata>
<defs>
<font id="art_nouveau_capsregular" horiz-adv-x="1611" >
<font-face units-per-em="2048" ascent="1638" descent="-410" />
<missing-glyph horiz-adv-x="487" />
<glyph horiz-adv-x="2048" />
<glyph horiz-adv-x="2048" />
<glyph unicode="&#xd;" horiz-adv-x="2048" />
<glyph unicode=" "  horiz-adv-x="487" />
<glyph unicode="&#x09;" horiz-adv-x="487" />
<glyph unicode="&#xa0;" horiz-adv-x="487" />
<glyph unicode="!" horiz-adv-x="819" d="M121 1489q0 -37 73.5 -70t96.5 -98q20 -61 20 -297l-2 -193v-215l-2 -63v-41l8 -59q12 -37 32 -59.5t43.5 -36t46 -18.5t40.5 -5q76 0 117 63.5t41 167.5q-59 0 -82 73t-23 210q0 78 13 207l26 262l25 90q10 51 10 76q0 55 -33 69q-20 10 -53 11l-303 -15q-23 0 -59 -16 q-35 -23 -35 -43zM338 100q0 -41 24 -73q27 -27 74 -27l45 6q37 8 62 43q27 33 26 82q0 84 -86 100l-43 7q-35 0 -69 -54q-33 -51 -33 -84z" />
<glyph unicode="(" horiz-adv-x="815" d="M23 565q0 -41 3 -94t11 -120.5t16 -123t19 -96.5l30 -125q14 -39 50 -39h260l94 2q41 0 41 13l-66 65q-29 31 -75 123q-45 86 -58 143l-31 209q-6 37 -13 93.5t-7 86.5v68q0 86 7 178t22 195q27 201 47 244t30 86q8 45 43 92q35 49 60 51q27 6 147 6q37 0 62.5 33 t38.5 88l10 63q-4 23 -45 23l-35 -2h-39q-127 0 -160 -19q-31 -18 -88 -106l-65 -103l-66 -122l-94 -187q-29 -53 -55.5 -129t-50.5 -168q-23 -92 -33 -191.5t-10 -236.5z" />
<glyph unicode=")" horiz-adv-x="681" d="M-31 1802l13 -67q8 -53 32 -84q27 -33 62 -33q145 0 162 -8q23 -10 49 -54q35 -49 41 -83l28 -87q10 -20 23.5 -80.5t28 -165t21.5 -195.5t7 -175q0 -47 -6 -110.5t-16 -143.5l-39 -223q-10 -35 -24.5 -72t-35.5 -76q-39 -74 -69 -108l-62 -60q0 -14 27 -14l119 -2h250 q43 0 57 64l31 125q18 72 30.5 169t12.5 183l-2 59q0 246 -52 436q-49 193 -100 293l-90 185l-119 202q-80 113 -108.5 129.5t-155.5 16.5h-72q-43 0 -43 -21z" />
<glyph unicode="," horiz-adv-x="253" d="M25 125q4 -16 12 -40t16 -42q27 -51 27 -98q0 -31 -11.5 -59.5t-35.5 -67.5q119 0 172 90q51 88 51 188q0 31 -11.5 54.5t-19.5 25.5l-22 8l-31 4l-33 5q-43 0 -78.5 -17.5t-35.5 -50.5z" />
<glyph unicode="-" d="M198.5 710.5q6.5 -22.5 47.5 -22.5l80 -2h67l39 4q-4 4 -9 6t-32 9l-41 12q8 4 18.5 5t61.5 1q43 0 104.5 -8t139.5 -24.5t127 -26t81.5 -15.5t54 -10t44.5 -8q41 -14 82 -15l31 2q127 0 223 25q96 29 123 72q27 45 26 65q0 16 -11 26.5t-42 10.5l-82 -16 q-45 -8 -66.5 -10.5t-60.5 -2.5l-61 3l-53 6l-222 47q-111 25 -188.5 39t-128.5 22l-66 10l-26 7q-6 -8 -20.5 -14.5t-73.5 -16.5q-4 -4 -27 -25.5t-64 -58.5q-82 -74 -75.5 -96.5z" />
<glyph unicode="." horiz-adv-x="595" d="M27 147q0 -61 46 -102t152 -41l35 -2l41 -2q139 0 205 47q63 51 63 107q0 29 -12 45l-33 59q-12 15 -63 33q-16 8 -27.5 10t-40.5 6l-96 4q-41 0 -78 -4t-72 -12q-70 -23 -89 -47.5t-25 -48.5z" />
<glyph unicode="0" horiz-adv-x="1327" d="M35 627l2 -88q0 -178 98 -365q100 -186 221 -205q119 -18 160 -18l137 6l183 2q86 2 171 38t149.5 125t101 243.5t30.5 396.5q0 385 -98 465q-49 41 -95 70.5t-89 50.5q4 12 4 24l2 27q0 74 -76 125q-78 53 -287 53q-174 0 -306 -69.5t-200 -198.5q-70 -129 -84 -238 q-8 -55 -13 -100t-7 -80t-3 -77t-1 -93v-94zM276 881q0 238 76 409q78 176 240 176q106 0 166 -18q53 -23 53 -78q0 -37 -20.5 -51t-30.5 -34.5t-10 -41.5q0 -33 16 -52.5t53 -19.5q31 0 76 15l41 12q27 -4 46 -23.5t36 -60.5q27 -41 35 -127q6 -29 9 -50.5t5 -37.5t2 -41 v-55l-4 -82l-21 -127q-8 -41 -33.5 -88t-66.5 -100q-84 -104 -258 -105q-68 0 -137 14q-74 20 -123 70q-86 86 -118 208t-32 288z" />
<glyph unicode="1" horiz-adv-x="946" d="M43 1198q0 -23 31.5 -47.5t70.5 -24.5q55 0 103 29q25 14 72 46t118 81v-973l4 -59q-4 -29 -24 -55q-14 -14 -41 -37t-68 -52q-14 -14 -14 -32q0 -27 31 -54q33 -20 77 -20l185 2l157 2l60 2l37 10l39 25q20 14 20 33q0 27 -76 84q-76 63 -75 108l-5 498l-10 575 q0 100 -6 148.5t-8 56.5q-6 16 -23 17q-29 0 -159 -99q-66 -47 -121.5 -81.5t-100.5 -57.5q-29 -16 -53 -26.5t-43 -14.5l-94 -29q-49 -14 -66.5 -28.5t-17.5 -26.5z" />
<glyph unicode="2" horiz-adv-x="1339" d="M49 78q0 -47 74 -72q80 -23 149 -22l195 14h37t59 2h121h295q72 0 116 3t64 7q35 10 76 35q20 14 32.5 23.5t16.5 16.5t5 14t1 20q-2 16 -7 36.5t-13 45.5q-20 53 -49 102l-54 90q-23 49 -22 70q2 18 31 59q-14 16 -27.5 21.5t-36.5 5.5q-31 0 -70 -23q-37 -23 -36 -116 q0 -96 -93 -97l-82 9h-114l-139 -7l-115 -4q-55 0 -64 25q12 68 52 106q23 23 96.5 72t195.5 127q129 82 210 138.5t120 88.5q80 68 94 156l21 106l2 31q0 129 -80 221q-76 90 -166 113q-45 10 -82 17.5t-69 11.5l-152 6q-51 0 -104.5 -4t-108.5 -13q-53 -8 -94 -17t-68 -23 q-98 -55 -146 -140.5t-48 -179.5q0 -96 49 -178q51 -80 125 -113q39 -18 76.5 -25.5t72.5 -7.5q113 0 176 39q66 39 91.5 71t25.5 81l-10 57l-6 58q0 33 22 51l-12 14q-6 8 -45 8q-31 -4 -88 -63q-59 -61 -115 -62q-25 0 -47 7.5t-55 23.5q-61 33 -62 117q0 63 59.5 122.5 t112.5 63.5q31 6 49.5 8t24.5 2l31 3q113 0 196.5 -66t96.5 -141q2 -18 8 -49t6 -62q0 -150 -94 -252q-47 -53 -109.5 -112.5t-144.5 -124.5q-160 -133 -259.5 -229.5t-146.5 -190.5q-29 -49 -40 -79t-11 -46z" />
<glyph unicode="3" horiz-adv-x="1384" d="M39 272q0 -57 28.5 -115.5t73.5 -105.5q25 -25 49.5 -40t57.5 -24.5t78 -13.5t108 -4l113 2h123q150 0 235.5 2t110.5 7q47 6 129 59q39 27 77 62.5t65.5 80.5t45 99.5t17.5 119.5q0 59 -31 177q-27 117 -176 213q-147 94 -516 159q-4 2 -7.5 6.5t-7.5 8.5q2 20 203 51 l229 45q106 27 174 84t68 135q0 35 -31 113q-29 78 -173 112.5t-380 34.5h-110q-47 0 -104.5 -5t-102.5 -13q-106 -20 -143 -49l-47 -37l-11 -23q-10 -20 -10 -43q0 -61 56.5 -106t166.5 -45l86 8l64 8l33 -10q20 -10 47 -11l6 46q0 70 -125 90q-37 12 -37 34q-2 10 8 21.5 t35 21t68 16.5t108 9q55 0 105.5 -10t88.5 -28.5t60.5 -45.5t22.5 -59l-2 -23l-17 -63q-18 -49 -198 -111l-338 -111q-55 -16 -56 -55q0 -41 170 -72q86 -14 154 -33.5t121 -41.5q106 -47 141 -135q37 -90 37 -148q0 -86 -40 -140t-85 -67q-23 -8 -115 -8h-24h-33h-39h-141 q-162 0 -162 88q0 39 20 82q-51 27 -110 27q-41 2 -82 -18.5t-71.5 -54.5t-47 -75t-10.5 -78z" />
<glyph unicode="4" horiz-adv-x="1499" d="M68 506q-2 -47 48 -90t142 -66q29 -4 61.5 -6t69.5 -2q45 0 104.5 3t157.5 13q49 4 83 7.5t50 5.5q18 2 47 2h68l135 -8l94 -17l80 -4q49 -2 91 19.5t73 56.5t47.5 76t12.5 77q0 33 -9.5 59.5t-15.5 39.5q-27 45 -59 61q-14 8 -50 19.5t-94 25.5l6 -41v-39q0 -18 -12 -45 q-12 -29 -31 -37q-16 -8 -108 -8h-41q-23 0 -57 2q-33 2 -60 2h-41l-295 2q-80 0 -116 11q-31 8 -31 39l12 53l57 123q41 86 84 229l76 252q33 111 66 111q39 0 39 -46l10 -731l145 2l160 2v56q0 35 -2 78q-2 45 -2 75v54l-2 247l2 121q0 23 1 42.5t3 35.5t4 28.5t4 18.5 q8 14 51 47q47 41 48 56q-31 35 -105 34q-51 2 -105.5 4.5t-140.5 2.5l-276 -17q-41 -6 -67.5 -23.5t-26.5 -45.5q2 -14 7 -30t13 -36q27 -43 33 -70q8 -18 8 -43v-28q0 -53 -41 -131q-20 -39 -58 -97.5t-93 -136.5l-172 -244l-72 -106q-10 -25 -10 -45zM590 90 q2 -25 31 -49q31 -25 63.5 -30t91.5 -5h103h110q70 0 102.5 2t55.5 6q39 10 63.5 37t24.5 47q0 29 -80 78q-80 51 -80 88l2 45q0 27 -25.5 33t-113.5 6q-129 0 -149.5 -6t-26.5 -53q-2 -43 -21 -68q-16 -23 -129 -92q-23 -23 -22 -39z" />
<glyph unicode="5" horiz-adv-x="1382" d="M55 297q0 -123 72 -211q72 -84 113 -94q37 -14 239 -15l207 3h248q115 0 205 79q92 82 144 185.5t52 238.5q0 133 -57 259t-156 204q-102 86 -211 113q-104 33 -233 33q-86 0 -160 -15.5t-119 -19.5l-14 114l-6 66q0 29 6 41q8 12 28.5 24.5t53.5 12.5l154 -25 q125 -25 198 -24q100 0 168 32q72 39 107 105q33 63 32 92q0 68 -125 68l-141 -11q-31 -4 -82 -9t-92 -5l-127 -2h-57h-58l-174 6q-82 0 -121.5 -17.5t-39.5 -70.5q0 -23 65 -135q37 -63 57.5 -105.5t34.5 -80.5q27 -66 27 -89q-4 -20 -55.5 -53t-86 -79t-34.5 -93 q0 -39 23.5 -61.5t64.5 -22.5q14 2 31.5 7.5t37.5 13.5q47 20 80 65l60 131l65 9h88q115 0 170 -25q57 -20 119 -74q72 -66 102.5 -138.5t30.5 -148.5q0 -33 -4 -54t-12 -48q-25 -74 -71 -117t-142 -34l-80 2l-90 2l-70 -4l-71 -5q-100 0 -101 54l2 24l8 25l62 35 q-23 31 -55 57q-27 27 -91 27l-75 -11q-25 -6 -50.5 -26.5t-46 -52t-34 -70.5t-13.5 -82zM229 850q0 16 25 39q23 23 39 31l10 -2l-10 -33l-25 -39q-12 -23 -30 -10q-6 4 -9 14z" />
<glyph unicode="6" horiz-adv-x="1347" d="M51 717q0 -207 51 -373q51 -170 148 -252q96 -84 139 -98q41 -20 119 -21l78 4l104 9l76 -2l72 -2q98 0 180 36.5t153 143.5q74 106 100.5 197.5t26.5 193.5q0 215 -129 375q-127 160 -258 176l-149 18h-43q-203 0 -275 -59q-35 -29 -80 -75t-98 -105q0 250 84 407.5 t213 157.5h25q33 0 61 -18l96 -74q76 -63 107 -72q37 -10 70 -10q98 0 171.5 75.5t73.5 161.5q0 45 -65 45q-45 4 -101 5h-135h-264q-94 0 -171 -28t-135 -77t-100 -115.5t-67 -146.5q-25 -78 -40 -142.5t-23.5 -113.5t-11.5 -104.5t-3 -116.5zM344 631q0 29 6 66.5t15 74.5 q25 88 106 150q82 63 145 63q143 0 252 -43t127.5 -151.5t18.5 -149.5q0 -102 -56 -190q-53 -90 -137 -113q-86 -23 -100 -23l-49 -2q-143 0 -238 86q-90 90 -90 232z" />
<glyph unicode="7" horiz-adv-x="1351" d="M61 1460q0 -35 34 -84t87 -100l105 -98q51 -45 51 -88l-4 -27l-15 -19q-12 -6 -49 -6q4 -16 10.5 -28.5t10.5 -20.5q14 -18 43 -24l41 -7q55 0 95 47.5t40 118.5l-6 50q-8 37 -23 61l-39 68l-45 61l33 -8l115 -41q49 -16 76 -19q14 -2 37.5 -3t56.5 -1q45 0 84 6.5 t74.5 18.5t71.5 29.5t79 39.5q-61 -98 -102 -168.5t-80 -138.5q-72 -139 -142 -309q-68 -176 -92 -297l-37 -182q-16 -61 -82 -105q-68 -43 -67 -88q0 -25 17.5 -41t52.5 -34q20 -8 32.5 -13.5t22.5 -7.5l47 -2l72 6l92 6l73 -4l54 -6l35 -2q31 0 61.5 6t56.5 14 q57 25 58 66q0 39 -72 92q-72 55 -78 101q-4 47 -4 73v56l-2 143q0 51 4 101t13.5 105.5t23.5 122t37 154.5q57 170 149 269q43 47 73 79.5t36 42.5q14 23 14 41q0 29 -35.5 49.5t-83.5 30.5q-41 14 -73 15l-217 -15l-170 -10l-246 10l-119 2l-90 2l-43 -4l-63 -10l-62 -23 q-27 -14 -27 -53z" />
<glyph unicode="8" horiz-adv-x="1320" d="M59 377q0 -117 48.5 -212t154.5 -157q41 -27 73 -36t58 -9l94 17q23 6 37.5 8t27.5 4t28 2h36q68 0 146 -14l55 -3l64 -2q115 0 204 37q92 39 146 144q53 102 53 211q0 121 -59 249q-29 63 -58.5 108.5t-60.5 72.5l-94 82q-20 14 -56 34.5t-90 47.5l178 96q49 37 79 68.5 t44.5 60t19.5 52.5t5 46q0 104 -113 178q-115 74 -377 74q-211 0 -364.5 -43t-173.5 -107l-31 -81v-31q0 -78 62 -146l84 -81l172 -86q-166 -102 -232 -173q-68 -70 -102 -155q-29 -66 -40 -103.5t-14.5 -63.5t-2.5 -45.5t-1 -43.5zM305 549q0 51 19 110q23 55 65 101 q41 43 84 74t127 47l55 6q59 0 113 -19q90 -25 168 -102q80 -78 80 -129l10 -66v-18q0 -80 -43 -143q-41 -66 -145 -66h-25l-41 4q-25 8 -55 8l-45 2l-101 -8l-102 -4q-49 0 -109 35q-55 37 -55 168zM389 1239q0 63 42 112.5t130 61.5l60 4l49 2q76 0 143 -22 q66 -27 88.5 -75t22.5 -89q0 -98 -90 -170q-84 -59 -158 -59h-29q-74 0 -151 57q-39 31 -60.5 55.5t-32 46t-12.5 40t-2 36.5z" />
<glyph unicode="9" horiz-adv-x="1386" d="M74 1126q0 -139 94 -247q96 -111 242 -142q147 -31 247 -30q223 0 379 131l72 73l-2 -163l-21 -138q-18 -113 -100 -209q-80 -96 -172 -96l-274 2h-54q-57 0 -98 15q-39 18 -39 61q0 39 35 102h-49l-76 -4q-20 -4 -30.5 -8t-28.5 -12q-37 -27 -65 -77t-28 -118 q0 -59 35 -133q18 -35 51 -64.5t78 -51t98.5 -35t112.5 -13.5h39t51.5 -2t51.5 -2h36l148 -2q43 0 78 12l90 25q25 8 62.5 29.5t77.5 60.5t81 97.5t72.5 142.5t50 196.5t16.5 259.5q0 82 -10 166t-32.5 161t-59.5 144.5t-88 120.5q-111 113 -195 135q-86 23 -233 23h-72 q-66 0 -127 -5t-108 -15q-100 -20 -172 -78q-68 -49 -88 -78q-8 -10 -19.5 -31.5t-28.5 -54.5q-29 -76 -28 -148zM397 1153q0 53 23 111q20 47 51 76.5t63.5 47t61.5 23.5t45 6q160 0 258 -43q102 -43 129 -119q31 -78 31 -122q0 -115 -109 -199q-106 -82 -235 -82 q-80 0 -151.5 35t-106.5 80q-35 55 -47.5 96t-12.5 90z" />
<glyph unicode=":" horiz-adv-x="532" d="M176 535q8 -49 55 -58l45 -2q66 0 88.5 27.5t10.5 50.5q-21 29 -39 35q-23 6 -64 6l-47 -4q-33 -6 -41 -21.5t-8 -33.5zM176 854q10 -53 55 -55l45 -2q66 0 88.5 26.5t10.5 48.5q-21 29 -39 35q-18 8 -64 8l-47 -6q-33 -6 -41 -21.5t-8 -33.5z" />
<glyph unicode=";" horiz-adv-x="450" d="M131 266q4 -23 12 -35q20 -10 50 -10h26q55 0 73.5 21.5t8.5 42.5q-11 24 -31 26q-14 8 -51 8l-47 -6q-27 -6 -34 -17t-7 -30zM137 84l19 -51q18 -41 18 -66l-8 -39l-23 -43q76 0 111 62q35 59 35 114q0 27 -6 40.5t-29 21.5q-12 4 -39 4q-33 0 -55.5 -11.5t-22.5 -31.5z " />
<glyph unicode="?" horiz-adv-x="1210" d="M55 1159l6 -80q6 -66 86 -143q82 -74 207 -74q152 0 217 56l84 81q10 16 -10 58q-20 43 -20 67q6 35 20 56l19 32l-9 31h-39q-23 -2 -34 -10l-41 -39l-17.5 -17.5l-11.5 -11.5q-8 -6 -32.5 -24.5t-73.5 -18.5q-20 0 -58 11q-53 29 -65 45q-16 33 -17 59q0 27 10 57l31 58 q25 31 88 55q66 27 148 27q96 0 159 -45q35 -25 59.5 -58t40 -69.5t22.5 -74.5t7 -71q0 -129 -63 -194q-27 -33 -56.5 -62t-62.5 -57l-127 -105q-39 -37 -64.5 -65.5t-41 -53t-21.5 -46t-6 -46.5q4 -41 14 -77q18 -47 61.5 -64.5t98.5 -17.5l68 6q16 4 31.5 8t31.5 8 q33 12 64 94q35 88 67 103l-26 28l-25 7q-25 0 -51 -19l-43 -22l-45 -6l-43 6q-25 8 -25 30q2 27 170 113q168 88 295 227q127 143 127 269q0 16 -3 32.5t-7 36.5l-23 66q-37 117 -162.5 180.5t-324.5 63.5q-225 0 -403 -82q-180 -82 -181 -299v-19zM444 86 q0 -29 19.5 -51.5t52.5 -28.5l53 -6q47 0 65.5 18.5t35.5 47.5q20 33 20 71q0 37 -24.5 62.5t-59.5 25.5l-69 -4l-37 -31q-31 -31 -43.5 -53t-12.5 -51z" />
<glyph unicode="A" horiz-adv-x="1761" d="M27 147q0 -78 49 -115.5t135 -37.5q145 0 266 80q119 80 203 153q94 89 188 222l45 65q-223 -72 -243 -94l-72 -78l-100 -86q-98 -68 -197 -68q-70 0 -101.5 22.5t-31.5 53.5q4 23 15.5 43.5t11.5 40.5q0 25 -22.5 37t-45.5 12q-8 -4 -21 -4l-18 -4l39 -31q14 -8 14 -22 l-78 -92q-37 -47 -36 -97zM207 1434q-1 -5 -1 -10q0 -63 99 -91q109 -35 109 -55q0 -35 -19 -35q-12 -4 -20 -10q6 -23 45 -23l49 7q33 6 33 40q-2 12 -9.5 31t-14.5 36t-13 32.5t-6 25.5q4 23 17 34t67 18l104 14l90 6q104 0 197 -55q-66 -14 -122 -36t-108.5 -53.5 t-102.5 -72.5t-105 -96q-106 -106 -165 -224t-59 -219q0 -106 45 -153q45 -49 104.5 -67.5t151.5 -18.5q98 0 222 37q61 18 103 34.5t65 30.5l172 121q66 47 106.5 78t56.5 47q39 35 48 35q4 -2 5 -5t1 -22q2 -20 14 -27.5t25 -7.5q23 0 41 25.5t18 52.5q-2 16 -8 34.5 t-16.5 34t-28 26t-41.5 10.5q-53 0 -107 -41q-59 -41 -114 -97l108 293l39 -110q12 -20 31 -21l30 2l33 -8q27 -6 43 -18q49 -47 49 -99q0 -66 -43 -84q-10 -4 -17 -10t-13 -10q-2 -2 -4 -3t-7 -5l33 -107q14 -41 19 -55q2 -8 6 -25.5t8 -46.5l20 -110q2 -4 3.5 -12.5 t5.5 -18.5v-43q0 -61 -24.5 -101t-78.5 -40l-61 8l-72 6q-59 0 -94 -23.5t-35 -81.5q0 -47 31 -67q14 -10 19 -15.5t12 -13.5q0 -4 -7 -10l-16 8q-2 -2 -5 -6t-3 -16q2 -29 18.5 -40.5t40.5 -11.5q35 0 59.5 18.5t24.5 41.5q0 31 -26 49l-41 35q-10 10 -11.5 15t-3.5 11 q4 23 39 23q18 0 44 -11.5t59 -41.5q35 -31 81 -53.5t97 -22.5q53 0 116 45q66 47 66 170q0 96 -41 223q-20 61 -57 160.5t-90 241.5q-109 279 -136 380q-27 100 -26 127q0 51 22 80q31 31 80 31q33 0 86 -18q-53 96 -102 110q-49 19 -258 19q-279 0 -467.5 -8.5 t-292.5 -24.5q-207 -35 -219 -96zM496 756l6 80l20 69l29 58l84 102q37 41 86 79t113 70q126 70 210 99l-4 96q53 -63 54 -170q0 -80 -34 -186.5t-132 -270.5q-98 -162 -137 -192q-37 -31 -103 -37q-109 0 -150.5 57.5t-41.5 145.5z" />
<glyph unicode="B" horiz-adv-x="1673" d="M-59 109q2 -33 41 -33q29 0 45 12q25 12 36 12q33 0 117 -47t131 -47t83 25.5t42 46.5q10 25 10 49l-10 57l-22 86q-16 51 -25 172l-12 117l-105 -2v-340q0 -31 -17 -51.5t-42 -20.5q-39 2 -70 23q-41 23 -55 22l-27 5q-23 -4 -49 -33q-29 -29 -55 -29l-16 -4v-20z M80 709q2 -29 16 -64q20 -35 52 -47t98 -12h28q182 0 336 47q94 29 204 65.5t239 83.5l112 45q162 -158 209 -221q59 -66 81 -141.5t22 -122.5q0 -59 -22.5 -109.5t-64.5 -89.5t-102.5 -60.5t-136.5 -21.5h-86q-184 0 -266 31q-74 35 -84 66l-19 51v31l6 61l9 47 q0 27 -13 39q-12 16 -39 25l-116 43q-88 33 -88 53q0 8 18.5 19.5t18.5 25.5q0 27 -29 27q-27 -2 -37 -17q-20 -23 -20 -47q0 -41 96 -84q98 -41 98 -70q-2 -18 -37 -53q-25 -23 -35 -34t-24 -35q-23 -39 -23 -74q0 -31 18.5 -59.5t51.5 -51t75 -37t91 -20.5l190 -23 q8 0 18.5 -1t26.5 -3h52h71h66q301 0 428 97q125 98 125 249q0 121 -49 201q-14 23 -28.5 44.5t-31.5 41.5q-18 27 -37.5 51.5t-42.5 51.5q-59 66 -104 108.5t-78 63.5q-66 43 -125 43l-82 -7q-27 -6 -48 -8t-30 -2q184 135 273 219q92 88 92 187q0 61 -43 123 q-41 61 -115 84q-71 24 -284 24l-795 -24q-31 -4 -33 -11l-22 -24l-11 -29q4 -8 10.5 -15t30.5 -30q63 -84 76 -145q14 -57 25 -156l18 -139l6 -56q-2 -8 -15 -15t-32.5 -16.5t-44 -23.5t-49.5 -39q-45 -45 -45 -110zM326 1407q0 8 41 8l108 6h123l141 2q61 0 109.5 -2 t85.5 -7t67.5 -14t59.5 -24q33 -43 41 -73q12 -31 15 -43.5t3 -47.5q0 -47 -47 -135q-45 -84 -258 -192q-106 -53 -195.5 -85t-162.5 -42l-82 -10l-10 542q0 33 -13 62zM397 846q2 -14 13 -14q4 0 8 2q29 10 53 53q23 55 23 96q0 53 -27 82q-6 4 -12 9t-15 9q-2 0 -4 2 q-8 -6 -20 -20l10 -35q-4 -31 -16.5 -37t-12.5 -147z" />
<glyph unicode="C" horiz-adv-x="2048" d="M20 705q0 -330 205 -555q205 -227 568 -228q150 0 297 39q78 20 156.5 48t154.5 63q39 -18 94 -19q59 1 100 25q36 21 36 47q0 4 -1 8q-6 33 -59 45q-59 16 -82 96q-27 70 -60.5 99.5t-74.5 29.5q-55 0 -119 -45t-145 -125q-94 -88 -156 -131q-35 -25 -77 -34t-99 -9 q-45 0 -103 11q-23 8 -63.5 23.5t-97.5 41.5q-113 51 -187 201q-74 147 -74 334q0 47 6.5 95t14.5 85q10 45 29.5 94t48.5 107q57 113 215 204q156 94 379 95l102 -7q57 -6 93 -35.5t36 -64.5q0 -31 -29 -65q-31 -35 -161 -121q-133 -90 -133 -164q0 -70 42 -95.5t128 -25.5 q25 4 49 4h53q39 4 65 4h58l22 2l6 -8q0 -8 -16 -37l-12 -28q0 -12 35 -13q37 0 68.5 29t31.5 63q-4 4 -4 17q0 12 -17.5 40.5t-48.5 35.5q-25 8 -143 8q-39 0 -39 22q2 14 14 27l295 78q170 53 170 225q0 59 -34.5 116.5t-149.5 121.5q-118 65 -483 65h-148l-164 2 q-184 0 -225 -33l-166 -221q-102 -133 -141 -252q-23 -72 -34 -115.5t-17 -88.5q-6 -43 -7.5 -78t-1.5 -53zM1128 55l99 84l53 41q12 6 35 6q25 0 24 -10q0 -18 -30 -37l-70 -41q-41 -25 -111 -43zM1509 315l15 -53q14 -45 32 -45q25 2 111 86q92 72 137 98q59 35 103 35 q23 0 41 -11t18 -34l-8 -45l-8 -45q0 -35 37 -41h24l-6 12q-4 12 -4 29l6 37l25 49q35 53 34 98q0 80 -114 80l-64 -6q-37 -14 -70.5 -26.5t-62.5 -26.5q-31 -16 -68.5 -42t-84.5 -61q-92 -68 -93 -88z" />
<glyph unicode="D" horiz-adv-x="1828" d="M6 10q0 -12 17 -18l34 -8q88 0 144 30q49 31 73 31h5q137 -37 239 -37q180 0 201 94l4 33q0 51 -68 98q-66 47 -65 68q2 10 6 19.5t8 19.5l31 8q23 0 58.5 -28.5t90.5 -114.5q29 -41 67 -82t85 -82q94 -80 266 -80q72 0 182 31q106 27 205 119t157 216t58 279 q0 137 -61.5 281.5t-180 273.5t-209.5 184.5t-167 55.5l-66 -10q-16 -6 -44.5 -18.5t-43.5 -20.5q150 -78 283 -172q66 -47 124 -105.5t105 -130.5q96 -145 96 -326q0 -180 -98 -298.5t-260 -118.5q-111 0 -291 112q-176 113 -282 113q-84 0 -123 -33q-37 -35 -37 -80 q4 -33 11 -58.5t28 -55.5q2 -4 2 -19l-10 -4l-41 8q-37 8 -95 144q-55 131 -55 346l6 151q6 47 13.5 91.5t19.5 95.5q12 55 26.5 105t27 89t21.5 63.5t9 30.5q0 18 -25 25q-33 14 -32 41q10 47 77 57l50 2l57 2q14 0 35.5 -1t83.5 -9l112 -20q14 -2 33 -13q12 -4 19 -8 l-11 -16l-26 -29q-8 -4 -15.5 -8t-17.5 -6q14 20 14 33l-14 18q-12 12 -27 12q-20 -2 -32.5 -15t-12.5 -32q0 -18 18.5 -39.5t43.5 -21.5t119 59q94 61 129 74q37 12 50 14t40 2l73 2l52 4q20 8 22 27l4 25q-2 23 -18.5 30t-69.5 13q-37 8 -126 12t-212 4q-25 0 -83 1 t-152 3q-184 6 -285 6l-131 -4q-33 -6 -47 -16l-37 -45q-27 -33 -27 -47l62 -84q24 -51 24 -152v-8l37 -913q0 -53 -28 -70l-78 -37q-53 -25 -65.5 -78t-51.5 -61q-37 -6 -37 -23z" />
<glyph unicode="E" horiz-adv-x="1910" d="M59 1470q0 -66 58 -96q59 -35 59 -223l8 -305q37 20 62.5 31.5t42.5 15.5q39 16 78 16l22 498l569 14q80 0 121 -4t56 -10q35 -16 34 -41q-2 -16 -67.5 -75.5t-65.5 -100.5l6 -39q8 -25 28 -41t69 -16t147 18q37 0 37 -25l-14 -45q-8 -18 6 -18l59 20q41 23 41 35l2 27 q0 61 -102 61q-102 6 -103 25q6 18 61.5 49t125.5 53q74 31 104.5 63t30.5 66q-4 29 -21.5 50.5t-62.5 44.5q-108 38 -161 38h-3q-20 2 -147 3.5t-363 1.5l-444 -9l-205 -10q-63 0 -66 -12q-2 -6 -2 -60zM129 649q0 -117 115 -219l213 -160l133 -90l51 -37q-8 -2 -41 -2 q-35 0 -60.5 7.5t-47.5 23.5q-47 33 -68 68l-35 49l-33 24l-149 111l-12 -240q2 -20 17 -28.5t33.5 -17.5t36 -25.5t25.5 -51.5q18 -45 60 -45l1034 -16q199 0 288 42t89 128q0 68 -64 100q-61 37 -61 52l-2 26q2 27 22.5 36t75.5 24q57 16 81.5 24t37.5 19q35 23 35 90 q0 45 -21 67q-16 23 -84 45q-63 20 -63 54q0 31 -19 30q-20 -4 -35.5 -15t-15.5 -40q4 -29 20.5 -49.5t16.5 -38.5q-6 -29 -176 -63.5t-170 -131.5q0 -70 108 -116q100 -42 100 -84q0 -4 -1 -9q-6 -39 -48 -53t-143 -14l-137 6l-197 21q-72 12 -139.5 26t-140.5 37 q-78 23 -143.5 59.5t-118.5 83.5q-104 92 -121 129q-12 33 -13 154v106q147 0 254 6.5t172 20.5q135 27 160 94.5t25 89.5q0 18 -12.5 61.5t-124.5 61.5q-117 20 -117 33q0 16 24 27l27 16l-2 8q-2 2 -2 4q-6 5 -14 9l-27 6q-35 0 -64.5 -27t-29.5 -55q2 -12 11 -26.5 t18.5 -29t16.5 -27.5t7 -22q0 -53 -170 -82q-86 -14 -151.5 -29.5t-116.5 -35.5q-102 -37 -117 -174v-25z" />
<glyph unicode="F" horiz-adv-x="1720" d="M70 1503l94 -217q49 -139 61 -268l13 -148q-2 -23 -27 -53q-27 -29 -48.5 -80t-21.5 -116q0 -96 31 -166q16 -33 33.5 -61.5t36.5 -55.5l170 -215l-35 -8q-10 0 -13.5 19.5t-19.5 35.5l-125 170l-102 -272q-14 -23 -15 -41q0 -16 43 -17l45 -8h62q27 0 57.5 4t59.5 10 l133 33q29 -16 64.5 -29.5t88.5 -13.5q61 0 92 30t31 75q0 41 -27.5 69.5t-70.5 28.5q-47 0 -84 -14l-96 -37l-56 43l-61 63l33 461q0 63 -21 63q-12 0 -39 -12q-70 -20 -92 -60t-22 -104v-47l2 -43q-27 27 -27 109q0 43 31 110q33 63 190 88l258 23q125 25 125 129 q0 49 -24.5 75.5t-55.5 37.5q-141 45 -141 98q0 31 55 68q-14 8 -28 8l-33 -8l-43 -27q-29 -23 -29 -53q0 -16 23 -58q25 -41 24 -53q0 -25 -22.5 -43t-85.5 -39l-62 -20q-14 141 -24 222t-17 103l-14 68l-27 86q233 24 310 24h6l196 7q86 0 160 -7.5t137 -21.5 q123 -27 164 -74q41 -45 41 -67q-2 -16 -9 -33t-17 -37l-48 -78q-20 -35 -20 -63q0 -45 24.5 -79t69.5 -34h12l39 8l54 13q20 4 41 4q23 0 39 -19q20 -20 57 -26q45 0 45 41q0 20 -16 32q-29 29 -49.5 39t-53.5 10l-53 -6l-53 -8q-25 4 -29 9t-4 32q16 43 47 64.5t94 29.5 l125 39q78 35 78 103q0 137 -158 172q-161 34 -409 34l-500 -2l-369 -12q-184 0 -192 -18zM582 104q27 21 39 21q27 12 55 12q43 0 47 -22q0 -18 -17.5 -30.5t-35.5 -12.5q-27 0 -51.5 11t-36.5 21z" />
<glyph unicode="G" horiz-adv-x="1652" d="M37 987l10 -26l10 -109q2 -20 21.5 -33.5t19.5 -36.5q0 -104 13.5 -184t40.5 -149q29 -68 72.5 -132.5t103.5 -123.5q-12 31 -28.5 74.5t-23.5 72.5q-4 31 -4 70v98q-16 86 -30 117q-6 39 -6 147q33 -41 34 -61l19 -76q0 -334 57 -447q59 -115 229 -161q172 -47 211 -50 q20 -2 39 -4t35 -6h64q139 0 268 58q66 29 114 66.5t81.5 80.5t54 86t28.5 80q12 47 19.5 88t17.5 98q20 111 70 129q47 23 47 37q0 43 -46 60.5t-124 17.5q-63 0 -127 -14l-156 -37q-86 -18 -133 -19q-51 0 -69.5 33t-38.5 33q-35 -4 -35 -43q0 -23 12.5 -43.5t43 -35.5 t80.5 -24.5t124 -9.5q115 0 150 -26q39 -25 47 -117q0 -162 -59.5 -215t-116.5 -92l81 82q55 68 62 116q10 51 10 70l2 27q0 94 -41 112.5t-74.5 21.5t-74.5 3q43 -49 59.5 -88t16.5 -80q0 -61 -35 -113.5t-84 -83.5q-47 -31 -88 -40t-105 -9q-94 0 -188 25q-45 14 -92 39.5 t-99 60.5q-100 70 -131 154q-14 41 -24.5 76.5t-14.5 64.5l-24 154q-18 74 -113 118q-92 47 -115 74q-20 27 -36 35l-21 10h-10zM117 973q0 -43 96 -78l20 -4q29 4 50 78q23 78 69 176q57 113 199 184q139 72 307 72q123 0 238 -43q113 -41 174 -109.5t61 -146.5 q0 -35 -17.5 -52.5t-39.5 -17.5q-29 2 -88 27q-72 28 -101 28h-2h-5q-44 0 -78 -35q-37 -36 -42 -98q2 -33 14.5 -52t31.5 -19q14 2 14 20q-4 16 -4 31l-2 33q2 27 11 36t32 9q31 -4 96 -90q68 -86 164 -86t141 66.5t45 162.5q0 106 -65 221q-63 117 -200.5 203t-317.5 106 l-113 7q-264 0 -422 -140q-152 -137 -211 -288q-55 -152 -55 -201z" />
<glyph unicode="H" horiz-adv-x="1816" d="M41 -8q0 -33 22.5 -42t65.5 -9h27q37 0 50 10t13 29l-4 38q2 25 27 25l67 -14l113 -29q20 -4 34.5 -6t25 -4t28.5 -3t47 -1q25 0 49.5 4t48.5 10q51 12 52 53q0 12 -13 41l-37 76q-27 55 -43 121q-6 20 -9 35.5t-4 29t-2 30.5t-1 46q0 172 82 285q84 115 248 186 q166 74 325 74q61 -2 114.5 -14.5t93.5 -36.5q41 -25 61 -65q19 -36 18 -87v-10q0 -82 -47 -205q-47 -125 -143 -276q-96 -158 -97 -217q0 -35 14.5 -63t35 -47t43 -29.5t40.5 -10.5q43 0 100.5 39t143.5 111l37 12q20 -2 21 -21q-4 -16 -5 -34l-2 -29q4 -23 12.5 -35 t32.5 -12l37 6q6 0 17 10q-4 10 -17 10q-29 0 -28 27q4 20 18 41.5t21 42.5q8 18 8 49q0 33 -19 49q-23 20 -43 25l-43 4q-59 0 -123 -70q-33 -35 -56 -55t-40 -29l-45 -28l-20 -6q-29 0 -29 40q0 53 147 248q74 98 125.5 172t77.5 123q57 94 58 215q0 66 -26 121t-70 96 t-105 68t-135 33l-33 4h-31q-229 0 -491 -133q-264 -133 -353 -271q-90 -139 -104 -266l-37 -289q-24 -26 -142 -26h-9q-129 0 -130 -72q6 -33 16.5 -44t10.5 -26q-4 -16 -16 -16l-25 2l-33 6q-18 0 -18 -16zM283 1444l34 -51q12 -14 21.5 -33t17.5 -37q25 -68 37.5 -123 t12.5 -115q6 -25 8 -57.5t2 -75.5v-26v-31v-37v-47v-57v-72v-88l63 123q16 27 30.5 47t29.5 37l12 123q2 14 6 49v88q0 178 64 268q63 94 208 180q6 6 7 19q0 4 -13 10l-200 10q-184 0 -211 -8q-29 -10 -78 -47q-25 -18 -39 -37z" />
<glyph unicode="I" horiz-adv-x="669" d="M47 82q2 -14 6 -24.5t8 -20.5l41 -37q2 -2 5.5 -6t11.5 -12q2 0 6 -5q-2 -2 -5 -7t-7 -7l-11 -14q2 -8 56 -8q49 6 49 30q0 10 -29 45q-14 16 -19 26.5t-9 18.5q2 8 16 15q10 0 51 -19q20 -12 47 -21t51 -16q27 -6 42.5 -8t43.5 -2q63 0 111 19q41 25 41 55 q-4 27 -61.5 115t-57.5 286v37t-2 51q-2 31 -2 54v41v200q0 125 18.5 205t61.5 180q45 98 45 162q0 144 -131 162h-21q-55 0 -88.5 -28.5t-33.5 -84.5q0 -43 24.5 -68.5t59.5 -25.5q27 0 47 10l30 31q12 14 13 35q-2 12 -25 53l12 4q20 -4 35 -24q18 -29 19 -58 q0 -47 -50 -98q-49 -61 -143 -61t-104 -29l-6 -31q4 -14 22 -37.5t45 -83.5q14 -33 24.5 -65.5t14.5 -67.5q8 -31 8 -129v-24v-33v-39v-47q0 -328 -22 -400q-23 -68 -113 -96q-86 -27 -109 -45q-16 -16 -16 -53z" />
<glyph unicode="J" horiz-adv-x="1753" d="M39 455q0 -258 166 -396q168 -139 401 -139q188 0 373 82q190 84 256 182l82 121q10 10 14 14.5t10 6.5l50 -27q27 -14 96 -14q72 0 82 67q8 68 20 68q39 -39 70 -39t42 22.5t11 71.5q-6 43 -25.5 60.5t-41.5 17.5q-31 -4 -56 -14q-25 -12 -53 -54q-27 -39 -66 -55 l-57 -8q-72 0 -139 37l-135 88q-27 0 -131 -148q-102 -145 -148 -196q-45 -47 -117 -76q-45 -18 -62 -23.5t-42 -9.5l-64 -6q-113 0 -196 72q-80 70 -80 176l8 63q8 33 13.5 44.5t13.5 27.5q10 20 25.5 37.5t29.5 31t24.5 22.5t10.5 16l-14 32q-16 33 -35 43q-20 16 -47 17 q-23 -2 -63 -44t-66 -96l-6 39q0 43 24 72q23 35 76 47l35 4q102 0 133 -233q33 -233 125 -234q74 0 86 109q14 109 26 121q20 8 27 -9q10 -18 29 -22q47 0 47 47q-2 23 -21.5 38t-48.5 15q-72 0 -92 -86q-23 -88 -45 -90q-20 -2 -31.5 21.5t-11.5 62.5l29 94q31 76 36 142 l9 86l-4 34l-7 35q66 100 66 181q0 47 -19.5 79.5t-42.5 44.5q-20 10 -36 11q-29 0 -40.5 -17.5t-11.5 -54.5q0 -20 19 -20l37 4q20 -2 20 -25l-12 -59q-16 -39 -27.5 -49.5t-27.5 -10.5l-27 4l-41 11q-23 6 -59 6q-145 0 -258 -123q-115 -121 -115 -350zM975 1507 q0 -39 63 -65q66 -25 86 -45q43 -45 53.5 -69.5t16.5 -53.5l20 -66q10 -35 11 -123v-28v-33v-41l-8 -274l-9 -136q0 -29 6 -36q4 -4 18.5 -16.5t39.5 -28.5q51 -33 82 -33q53 0 53 237l20 463q0 49 10.5 89t16.5 57q12 35 27.5 66.5t31.5 60.5q0 16 -18 28q-16 12 -43 47 q-25 37 -66 37l-382 12q-6 0 -21 -6q-4 0 -6 -2zM1047 297q0 16 16 45t39 41q29 16 39 16q2 0 12 -6l-23 -45q-23 -37 -41 -51t-30 -14q-12 2 -12 14z" />
<glyph unicode="K" horiz-adv-x="1716" d="M41 102q0 -35 37 -65q41 -23 41 -39q-2 -14 -17 -21l-14 -12q8 -4 18.5 -8t34.5 -8q55 0 56 41q0 18 -13 41l-16 30q-25 14 -25 27q2 12 29 12l31 -14l45 -20q127 -66 274 -66q92 0 124 25.5t32 44.5q0 12 -53 65q-51 53 -52 119q0 102 82 235q41 68 90.5 131.5 t102.5 122.5q59 66 103 110t71 67q37 33 67.5 57t69.5 51q63 49 234 154q86 53 138 88t75 55q45 39 45 105q0 39 -27 63.5t-78 24.5q-47 0 -164 -39q-66 -25 -113.5 -32t-107.5 -7q-63 0 -69 18q0 25 4 37q14 12 30 12q14 0 21 -6l24 -28v28q0 27 -11 46.5t-40 27.5l-26 2 q-31 0 -67 -29.5t-36 -77.5q0 -68 64 -100q27 -18 53 -24l57 -7l45 2h17q8 0 18 -2q-4 -10 -22 -28l-60 -58l-82 -88l-327 205q-43 27 -133 66q-27 12 -43.5 19t-22.5 11q-16 8 -31.5 13.5t-27.5 7.5q-25 8 -66 8q-78 0 -102 -41q-23 -41 -23 -51q0 -8 6 -17l66 -32 q55 -29 55 -561l-2 -205v-215l80 157l61 103q23 29 23 57l-6 64l-31 499q63 -14 158 -63l159 -90l91 -56q-143 -154 -236.5 -258t-136.5 -161q-41 -57 -78 -122t-65 -141q-59 -147 -80 -165q-23 -16 -146 -17h-88q-29 0 -61.5 -22.5t-32.5 -55.5zM780 18q12 -29 51 -28 q31 2 50 14q29 16 28 45q0 39 -8 53l-12 37q2 14 22 25q14 6 56 -25l118 -94q80 -57 151 -80.5t136 -23.5q59 0 109 20q29 10 60.5 25.5t66.5 38.5q71 46 71 198q0 154 -104 348q-51 98 -121 189.5t-162 183.5l-86 90l-112 -86l118 -108q96 -100 154 -236q57 -129 57 -246 q0 -92 -43 -155q-47 -70 -125 -70h-26q-80 0 -170 66q-90 68 -119 71q-31 10 -49 11q-51 0 -80 -35t-29 -82q4 -27 20.5 -58.5t16.5 -46.5q-12 -23 -26 -22q-14 -3 -14 -13q0 -3 1 -6z" />
<glyph unicode="L" horiz-adv-x="1869" d="M37 61q0 -4 18 -12l25 -6q16 2 47 33q35 35 51 35q10 -2 19.5 -4.5t13.5 -4.5l76 -49q70 -35 121 -35q35 0 68.5 16.5t53.5 49.5l29 25l19 -13q47 -29 88 -48t75 -34q71 -24 186 -24h9l55 2l205 20q154 20 287 133q131 113 131 271l61 22q25 8 33 8h27l34 -4 q27 -6 39 -14l25 -20v-19q0 -14 18.5 -35.5t42.5 -21.5q27 4 44.5 22.5t17.5 40.5q0 39 -41 76q-23 20 -50.5 30.5t-64.5 10.5h-26q-31 0 -80 -12l-90 -31q-23 33 -39.5 53.5t-28.5 30.5q-20 27 -100 39q-39 8 -54.5 10t-42.5 2l-73 2q-53 0 -54 21q0 29 86 51 q43 14 69 26.5t39 24.5t16 26.5t3 32.5q0 41 -26.5 68t-75.5 27q-39 0 -62.5 -14.5t-29.5 -34.5q31 10 45 10q31 0 31 -35t-131 -80q-129 -47 -154 -92q-23 -49 -23 -78q0 -53 43 -90q45 -37 115 -37q27 0 39 2t39 8l96 29q31 8 45.5 11t42.5 3q88 0 88 -112q0 -41 -13 -72 t-62 -76q-49 -43 -108.5 -55t-156.5 -12l289 151l27 21q6 12 6 35q-4 23 -8 28q-2 0 -2 2l-101 -47q-29 -16 -51 -28.5t-37 -20.5q-14 -6 -36.5 -15.5t-51.5 -21.5q-84 -37 -209 -37q-137 0 -346 70q33 -55 73 -88t89 -51.5t107.5 -23.5t127.5 -5q-33 -14 -56 -18.5 t-56 -4.5q-74 0 -142.5 34t-140.5 100q-68 72 -86 149q-18 82 -30.5 160t-12.5 172q-49 0 -78.5 -11.5t-29.5 -29.5l6 -184q-16 6 -36 37.5t-20 68.5q0 72 37 108.5t90 36.5q25 0 47.5 -10t32.5 -16q-23 -16 -22 -37q0 -4 1 -8l3 -12q16 -35 55 -35q29 0 48.5 24.5 t19.5 55.5l-8 41q-8 20 -31 38q-41 27 -55 31q-16 8 -68 14q0 49 6 112t17 124l40 223l37 146l39 108h-295q-39 0 -63.5 -31.5t-26.5 -64.5l-6 -23q2 -14 51 -36q50 -19 56 -82l36 -500l-45 -31q-33 -20 -45 -53q-29 -53 -28 -109q0 -78 37 -135q43 -55 70.5 -71.5 t27.5 -30.5l-10 -88q-8 -70 -36 -99.5t-67 -29.5l-37 6q-8 2 -39 22q-20 23 -36.5 30t-34.5 7q-25 2 -39.5 -17.5t-25.5 -45t-19 -50t-17 -32.5z" />
<glyph unicode="M" horiz-adv-x="1869" d="M-18 27q0 -35 25.5 -51.5t41.5 -16.5q29 0 51 23q25 23 45 59q20 39 48 39q8 -4 32.5 -17.5t65.5 -39.5q82 -51 131 -52l24 2l46 13q37 14 55 52t18 116q0 27 -5 81t-15 138l-37 278l-23 162v84q0 117 27 182v13q-96 0 -158 61q-57 63 -57 152q0 53 22 108q31 55 74 92 l33 15l18 10q-12 2 -26 3t-39 1q-49 0 -67.5 -6t-43.5 -29q-31 -35 -30 -96l49 -340q4 -23 8 -55.5t12 -73.5q2 -16 5 -57t10 -109q8 -68 11 -132.5t3 -123.5l-10 -176q-12 -104 -38 -142t-67 -38h-31q-33 0 -54 -15.5t-40 -60.5l-24 -47q-8 2 -13.5 23.5t-27.5 21.5 q-49 0 -49 -51zM317 1307q0 -78 56 -140q57 -57 127 -57q33 2 57 16q31 14 31 48q-10 63 -51 63q-43 0 -43 -41l8 -45q-39 27 -39 74q0 27 11 53.5t29.5 45.5t43 31.5t51.5 12.5q133 0 168 -184q35 -186 35 -690q0 -70 -5 -136.5t-14 -111.5q-12 -53 -28.5 -92t-29.5 -67 t-23.5 -44t-10.5 -23q0 -34 59 -34h3h22h64l69 -2q66 0 88 6q23 10 23 24l-14 56q-8 23 -15.5 49t-11.5 55l-39 528q0 479 20 574q20 92 125 92q88 0 136 -39q25 -18 48 -47t42.5 -63.5t35 -71.5t23.5 -74q4 -20 6 -35.5t4 -30t3 -39t1 -59.5q0 -133 -39 -297 q-23 -92 -46 -174t-50 -155l-67 -203q-10 -41 -12.5 -59.5t-2.5 -53.5q0 -86 32 -129t87 -43l47 10q29 10 66 37t153 150q114 119 162 119h4q31 -6 31 -60q0 -29 8 -45t20.5 -24.5t26 -11.5t23.5 -3q37 0 53 23q18 18 18 39q0 7 -2 14q0 41 -30 41q-39 0 -41 -14.5t-5 -20.5 t-8 -12q-12 2 -18 20l23 62q14 29 14 45q0 14 -13.5 39.5t-60.5 25.5q-41 0 -94 -26q-27 -12 -62.5 -37t-80.5 -64q-89 -73 -131 -73h-1q-27 2 -39 33.5t-12 58.5q0 66 92 260q47 98 81 177t57 138q47 125 47 287q0 86 -17.5 169t-72.5 200q-51 117 -174 157 q-117 39 -367 39h-170q-225 0 -317 -26q-47 -12 -80 -37t-54.5 -54.5t-32 -62.5t-10.5 -61z" />
<glyph unicode="N" horiz-adv-x="1814" d="M49 92q0 -37 23 -65q33 -29 65 -29q33 0 60 20l61 52q33 33 49 32q10 0 70 -47q57 -45 127 -45q86 0 122 46t36 147q0 41 -6.5 95t-16.5 126l-45 285q-25 143 -25 180l-2 57l8 84q12 41 21 49q-4 4 -11 5t-30 3q-43 12 -78 54.5t-35 124.5q0 51 14.5 89t41.5 77 q59 79 96 110q-129 0 -156 -12q-25 -8 -59 -49q-8 -10 -15.5 -18.5t-11.5 -16.5t-6 -14l41 -101q10 -35 20.5 -109.5t20.5 -189.5q10 -113 16.5 -225.5t6.5 -228.5q0 -225 -30 -319.5t-73 -94.5q-14 0 -37.5 17.5t-42.5 17.5l-28 -9q-14 -6 -31 -22l-27 -35l-24 -35 q-10 -16 -33 -16q33 20 33 51q-4 25 -15 33q-14 14 -37 10q-25 -8 -41 -30.5t-16 -53.5zM461 1270q0 -76 39 -123q39 -43 96 -43q43 6 72.5 41t29.5 74q-2 25 -13 41t-36 16q-23 -4 -28 -16l-7 -23q0 -23 23 -45q-43 0 -43 39q0 74 98 127q102 53 223 53l93 -8 q47 -8 108.5 -37t102.5 -67.5t70.5 -114.5t29.5 -180q0 -141 -59 -338l-117 -373q-57 -172 -58 -270q0 -39 9.5 -64t25 -39t36 -19t40.5 -5q27 0 62.5 13t74.5 37.5t78 58.5t74 77q72 86 107.5 121t68.5 35q16 0 22 -13l9 -18l-15 -41l-12 -51q0 -31 25.5 -48.5t44.5 -17.5 q18 0 47 17l28 30q4 8 5 31q0 39 -33 45q-27 0 -33 -11t-8 -44q-16 16 -17 37q4 31 23.5 66.5t19.5 68.5q-8 49 -57 49q-45 0 -78 -31l-188 -186q-51 -45 -133 -45q-70 8 -70 71q0 43 19 103q20 57 135 313q123 264 153.5 381t30.5 232q0 158 -57 245q-57 92 -125 113 q-68 25 -267 25h-145q-225 0 -315 -23q-43 -12 -75 -32.5t-55.5 -45t-40 -50.5t-24.5 -48q-8 -29 -11 -42t-3 -48z" />
<glyph unicode="O" horiz-adv-x="1542" d="M45 926q0 -23 3 -47.5t7 -53.5l33 -116l-6 -95l-2 -79q0 -43 4 -81t10 -79q14 -80 68 -176q53 -92 112 -129q31 -16 73 -36t95 -42q98 -33 285 -33q154 0 298 27.5t261 95.5q123 74 178.5 205t55.5 286q0 49 -4.5 87t-12.5 75q-12 82 -52 191.5t-126 234.5l-90 113 q-115 127 -221.5 203.5t-220.5 119.5l-80 -38l-68 -37q-49 -31 -86 -56.5t-67.5 -50t-57 -50.5t-53.5 -56q61 -6 90 -23q31 -14 80 -53l94 82q29 18 54.5 31.5t58.5 25.5q123 -20 319 -198q193 -174 223 -306l43 -163q8 -25 9 -91q0 -88 -35 -173t-103 -136 q-66 -49 -146.5 -74.5t-180.5 -25.5q-119 0 -246 48t-238 142q-111 96 -188 244q-76 150 -76 268q0 86 21 109l39 43l34 24q-23 -20 -38 -45.5t-21 -52.5l-12 -53l-2 -35q0 -41 22 -98l43 -101l58 183q16 49 30.5 83.5t30.5 61.5q33 57 64 57q37 -6 41 -40.5t4 -94.5 q-1 -16 -1 -30q0 -29 5 -55q8 -38 23.5 -65.5t37 -42t43.5 -12.5q31 2 60 25q29 33 47 72l37 78q23 29 38 28q12 0 23 -12l18 -10q4 6 5.5 11t1.5 21q-2 31 -23 54q-16 10 -23.5 12t-13.5 4l-37 -16q-27 -14 -57 -97q-4 -10 -9 -23t-13.5 -23.5t-15.5 -16.5t-13 -2 q-14 8 -15 53q2 14 3 24.5t1 18.5v25l3 75l-7 72q-4 23 -16 52.5t-35 55.5q-24 26 -60 44q-32 16 -73 16h-10q-72 0 -150 -45q-82 -43 -114 -98q-18 -29 -30.5 -50.5t-21 -45t-12.5 -52t-4 -67.5zM211 424q12 -4 55 -80q41 -51 79 -90t77 -66q76 -53 233 -104 q-137 0 -252 59q-108 64 -165 199l-21 55z" />
<glyph unicode="P" horiz-adv-x="1925" d="M92 86q-2 -8 -2 -16q0 -16 8 -34q12 -26 45 -26l41 8q33 8 74 74t70 66q27 -4 41 -15q14 -8 73 -77q59 -66 125 -66q106 0 146 94q23 51 31 105.5t8 134.5l-7 110l-6 113q18 -12 37 -18.5t53 -6.5q18 0 52 7.5t67 13.5q25 6 40.5 10t24.5 7t15 4t14 1q35 0 41 -22l7 -33 q0 -29 -41 -28q25 -25 51 -25q33 0 58.5 24.5t25.5 65.5l-8 37q-6 16 -30 42t-65 26q-25 0 -88 -19q-33 -8 -56.5 -12t-39.5 -4l-55 8q-27 6 -84 41q-55 33 -56 104q0 33 25 57.5t49 24.5q42 0 108 -98q59 -89 89 -89q3 0 6 1l16 8l-8 18l-102 144l504 -182q41 -20 73 -27 l80 -4q82 0 156 39t117 106q45 70 65.5 125t20.5 129q0 68 -29 144q-27 72 -109 159q-80 90 -217 135q-113 45 -212.5 60.5t-203.5 15.5q-51 6 -91 8t-64 2l-117 3h-129l-217 -9q-70 -8 -70 -59q2 -20 11.5 -54t17.5 -61q14 -43 27.5 -127t23.5 -209q16 -135 22.5 -239.5 t6.5 -208.5q0 -131 -4 -216t-12 -126q-16 -80 -48 -86q-20 4 -92 65q-70 70 -119 70q-27 -4 -56.5 -29.5t-29.5 -62.5q0 -80 -17 -115t-38 -35q-27 0 -43 29zM623 1188q0 29 12 63q8 18 19.5 28.5t21.5 20t16 21.5t6 33q-10 39 -47 59l6 4l35 -2h47q322 0 499 -46t239 -107 q63 -59 84.5 -108.5t21.5 -96.5q0 -33 -12 -68t-38 -63t-68 -44q-34 -13 -77 -13q-11 0 -22 1q-37 0 -101.5 6.5t-158.5 16.5l-285 37q-39 43 -63 80q-29 45 -39 110q0 12 2 25.5t4 19.5l14 -14q18 -12 27 -12q16 0 31.5 25.5t15.5 43.5q0 35 -20 49q-23 23 -54 23l-41 -6 q-25 -6 -41 -28.5t-16 -55.5q0 -49 30.5 -117.5t92.5 -154.5q-41 0 -70 -27l-14 94q-2 18 -11.5 40t-19.5 47.5t-18 55t-8 60.5z" />
<glyph unicode="Q" horiz-adv-x="1558" d="M18 768q0 -248 121 -436q125 -197 273 -266q117 -63 178 -72q33 -4 51 -7t27 -3q8 -2 18 -2h23q-47 59 -79 99t-38 48l-133 84q-123 96 -170 219q-25 70 -35 127t-10 123l4 63l28 142q31 113 173 231q145 121 350 121q168 0 352 -76q10 -16 20.5 -33.5t20.5 -37.5 q8 -18 20.5 -52t23.5 -80.5t18.5 -103.5t7.5 -121q0 -203 -97 -364q-98 -160 -207 -205q-113 -47 -145 -47q-35 0 -55 24l-60 82q-43 59 -72.5 143.5t-29.5 157.5q0 66 20 121q10 29 22.5 48.5t23.5 29.5l45 43q16 10 53 10q33 -4 45 -15t12 -30q0 -18 -18 -31l-19 -10 l-2 27l-4 16q-6 6 -14 10q-23 4 -39 -12t-16 -43q2 -27 12 -51q31 -43 88 -43q33 0 72 20q35 20 53 55.5t18 65.5q0 27 -13 52.5t-37 45t-53.5 31t-62.5 11.5q-49 0 -120 -33q-74 -31 -122 -123t-48 -211q0 -102 34 -211q45 -113 123 -211q80 -98 135 -143q53 -47 158 -101 l-104 -18l-115 -6q-123 0 -219 33q-96 31 -121 84q-23 55 -23 73q0 23 7 35l14 25q-8 6 -35 6q-55 0 -104 -43q-45 -43 -56 -84l-12 -55v-48q0 -41 4 -66.5t10 -51.5q18 -53 62 -72l16 -2q16 4 17 39q4 20 11 35.5t15 25.5q41 23 62 23q14 0 110 -29q94 -31 192.5 -49 t205.5 -18q152 0 284 34q129 33 160 84q31 49 31 64q0 33 -34 53.5t-81 20.5l-186 4q-66 2 -142 49q92 37 161 74.5t121 77.5t89 81t68 82q51 78 69 148q27 70 43 202q47 55 62 84q10 18 12 30.5t2 37.5l-2 41q0 45 -6 67q-8 27 -55 125q-45 102 -228 205q-90 51 -161.5 82 t-131 48.5t-106.5 22.5t-86 5q-53 0 -89 -6t-73 -15q-39 -10 -72.5 -21t-62.5 -26q39 55 139 101q57 25 103.5 35t99.5 10l65 -6l60 -17q29 -10 67 -41q20 -16 35 -30.5t23 -24.5q35 -10 66.5 -23.5t60.5 -27.5l133 -72q-33 72 -77 129t-118 109q-74 55 -175 85.5t-208 30.5 q-86 0 -160 -19t-135 -54q-82 -49 -147.5 -100.5t-114.5 -109t-81.5 -125t-49.5 -151.5q-18 -82 -25.5 -149.5t-7.5 -116.5z" />
<glyph unicode="R" horiz-adv-x="1667" d="M35 63q0 -43 27.5 -62t54.5 -19q33 0 56.5 22.5t23.5 56.5q0 18 -23 70q-23 55 -22 86q0 33 34 39q45 0 45 -51l-8 -80q0 -53 26.5 -87t69.5 -34l318 6l-14 604l419 275q14 10 18.5 15t8.5 11q0 10 -25 27l-36 29q-18 14 -50 28l-112 -77l-244 -154l-2 506l18 156 q88 12 181 12l211 2q117 0 164 -41t47 -100q-2 -16 -4.5 -32t-6.5 -30q-6 -25 -39 -76q-31 -51 -77 -51q-18 2 -66 25q-12 6 -33.5 18t-64.5 29q-59 23 -101 28q-49 -29 -102 -55t-111 -53q223 -23 351 -80q127 -55 252 -225q123 -168 171 -295t48 -225q0 -117 -47 -142 q-47 -22 -70 -22h-2q-45 0 -107 84q-59 86 -122 86q-33 0 -51.5 -9.5t-26.5 -24.5t-9.5 -36.5t-1.5 -46.5q-62 -7 -62 -50q0 -4 1 -9q0 -37 17.5 -47.5t37.5 -10.5q23 0 45.5 14.5t28.5 32.5l6 27q0 18 -12 53l-12 43q0 18 24 25h5q47 0 81 -135q37 -139 111 -168 q76 -29 96 -29l21 2l30 2q86 14 151.5 80t65.5 238q0 111 -36.5 229.5t-118.5 247.5q-47 72 -79 115.5t-48 64.5l-113 119q244 195 244 358v25q-27 143 -150 155q-61 8 -150 11.5t-208 3.5l-584 -17q-12 -8 -35 -26l-43 -37l41 -82q16 -41 29.5 -111.5t24 -169t15.5 -249 t5 -357.5q0 -111 -4 -181.5t-10 -105.5q-14 -69 -55 -69h-1q-27 4 -41 51q-14 49 -52 65.5t-77 16.5q-57 0 -86.5 -29.5t-29.5 -58.5q2 -29 10 -47l41 -58q-27 14 -45 15q-45 0 -45 -54z" />
<glyph unicode="S" horiz-adv-x="1503" d="M29 229q0 -119 157 -190q156 -68 404 -68q49 0 133 7.5t207 21.5q246 29 389 141q145 117 145 269l-10 57q-10 -41 -22.5 -71.5t-22.5 -51.5q-20 -39 -74.5 -88t-120.5 -80q-33 -16 -69.5 -22.5t-91.5 -6.5q-35 0 -92 11l-60 12q-27 -4 -63 -27q-20 -12 -56.5 -23 t-82.5 -18.5t-98 -12.5t-105 -5q-117 0 -209 35q-88 39 -88 104q2 31 37 78q23 29 92 49.5t180 20.5q233 20 233 141q0 57 -25.5 76.5t-68.5 19.5l-53 -6l-66 -4q-57 0 -65 37q-8 33 -23 33q-25 0 -30 -37q-1 -7 -1 -14q0 -41 42 -68q51 -31 51 -43q0 -29 -8 -31 q-4 -2 -62.5 -10t-175.5 -25q-227 -29 -227 -211zM94 1264q0 -70 92 -140q88 -68 351 -186q137 -63 226 -107.5t155 -82.5q127 -78 165 -164q43 -90 43 -144q0 -78 -51 -135q-49 -55 -96 -55q-33 0 -47 18l12 -4q12 -4 21 -4q27 0 32 29l4 22q0 27 -18 37t-41 10 q-33 0 -49 -10q-14 -4 -32.5 -27.5t-18.5 -48.5q-1 -4 -1 -7q0 -33 49 -63q54 -34 159 -36q86 0 163.5 30.5t126.5 82.5q49 53 67.5 95t18.5 95q0 47 -20 88q-51 106 -295 229l-473 234q-210 117 -210 208q0 7 1 13q12 82 131 115q117 33 283 33l71 -3l91 -10 q74 -10 95 -22.5t21 -42.5q-2 -33 -112 -68q-106 -33 -107 -121q0 -43 36 -80.5t81 -37.5q39 0 69 30q18 18 27 25q2 2 10 6q8 -2 15 -31q12 -31 35 -30q25 4 37 27.5t12 55.5q0 49 -27 74t-41 25q-29 0 -53 -66q-29 -66 -43 -65q-12 2 -26.5 16t-14.5 49l2 29q6 20 27 51 q20 33 161 33t164 47q20 41 21 66q0 92 -142 159q-139 70 -383 70q-162 0 -286 -23q-100 -10 -189.5 -36.5t-156 -65.5t-105.5 -86q-37 -45 -37 -95v-5z" />
<glyph unicode="T" horiz-adv-x="1609" d="M37 1251q0 -70 67 -114q35 -23 76 -45.5t90 -44.5q98 -47 99 -78l-11 -33v-14q6 2 15 6q10 4 18 9t17 9q47 29 61 45q16 29 16 49q-2 20 -28 70q-25 45 -25 72q0 29 23.5 58.5t105.5 76.5q63 33 119 46q58 13 116 16q35 2 71 2q23 0 49 -1q21 -1 44 -1q45 0 95 3 q209 0 235 -16q14 -10 18.5 -15t8.5 -12q0 -10 -25 -10l-260 12l-190 17q-68 0 -133.5 -17.5t-124.5 -54.5l-35 -33q8 -4 10 -4q27 -6 62 -12q74 -16 110 -141q39 -123 39 -551q0 -92 -2 -137.5t-6 -88.5q-8 -66 -43 -124q-33 -57 -56.5 -82t-37.5 -35q0 -2 2 -4t14 -6 l98 -48q78 -38 273 -38h10q80 0 145.5 13t113.5 38.5t74.5 64.5t26.5 92q0 104 -84 105q-29 0 -61 -12q-43 -16 -70 -17q-49 0 -49 41q0 20 17 49q14 14 18 17.5t10 5.5q6 -8 6 -31q6 -27 41 -26q29 6 39 34q8 31 -16.5 48.5t-61.5 17.5q-31 0 -58.5 -11.5t-49 -30 t-34.5 -41t-13 -46.5q2 -29 26 -60q29 -25 70 -36l57 -19q16 -10 17 -22q0 -16 -19 -35l-32 -19q-6 -2 -48 -2q-139 0 -174 189q-16 96 -25 211.5t-9 253.5q0 365 63.5 416t487.5 51q25 0 45 4t41 12q43 18 43 37q0 51 -64 84q-27 14 -80 37.5t-129 54.5t-145.5 50.5 t-143 29.5t-176 16t-237.5 6q-190 -14 -342 -94q-147 -78 -176 -125t-29 -82z" />
<glyph unicode="U" horiz-adv-x="1720" d="M47 817q0 -193 41 -297q20 -51 56 -115.5t87 -146.5q102 -160 254 -231q147 -70 271 -70q129 0 241 53l179 137l77 -41q45 -27 82 -67q43 -43 70 -43q25 4 31 35l18 112q14 66 14 263q0 90 -5 186t-15 201q-10 106 -19.5 190t-19.5 147l-31 170q0 14 6 31l62 -18 q25 -8 65 -8l78 10q55 12 70 33q12 18 39 112l24 37q14 12 41 12l27 4l-14 37q-18 29 -50 29q-43 0 -67 -61q-25 -59 -51.5 -85t-71.5 -26q-39 0 -80 10l-186 68q-111 28 -134 28h-1q-18 0 -19 -12l19 -43q10 -18 22 -42.5t25 -57.5q14 -31 27.5 -77t23.5 -107 q22 -120 22 -229v-9q0 -125 -21.5 -234.5t-62.5 -214.5q-84 -209 -163 -268q-43 -35 -74 -53.5t-53 -24.5q-49 -16 -107 -16q-133 0 -260 96q-123 96 -133 170q92 -98 176 -137q80 -39 270 -39h72q63 0 96 21q35 23 82 102q-307 0 -364 6q-66 8 -181 68q-117 68 -210 260 q-49 100 -71 193t-22 192q0 143 54 225q29 41 63.5 53.5t83.5 12.5l41 -5l66 -2q86 0 108 72l27 64l24 45q-2 10 -12 16t-22 6t-74 -37q-50 -29 -78 -29q-6 0 -10 1q-8 4 -18.5 8t-20.5 8q-16 8 -28.5 13t-20.5 10q-51 30 -131 30h-5q-25 0 -45 -7t-37.5 -25.5t-33 -51.5 t-33.5 -84q-8 -18 -12 -29.5t-7.5 -19.5t-4.5 -16t-3 -23l-30 -180q-10 -76 -16.5 -149.5t-6.5 -145.5zM1270 291l55 125q8 20 18.5 45.5t14.5 40.5l16 82l12 -269l-8 -90z" />
<glyph unicode="V" horiz-adv-x="1583" d="M74 1413l4 -113l39 -186q33 -147 145 -309q111 -160 316 -395q207 -236 206 -299q-2 -16 -6 -30.5t-8 -31.5q-16 -35 -57 -35q-27 2 -49 15q-25 18 -66 104q-20 43 -52 61.5t-77 18.5q-78 0 -115 -92q-31 -79 -52 -79q-3 0 -5 1q23 -47 55 -47q35 4 67 30.5t46 49.5 q20 25 47 22l121 -129q74 -68 121 -69l86 -9q82 0 128 37t46 97q0 86 -195 299q-102 109 -166.5 182.5t-111.5 128.5q-84 104 -135 235q-35 86 -50 160q-20 94 -20 205q0 57 18.5 97t40.5 40q23 -2 68 -35q42 -30 104 -30h4q33 0 58.5 12t43 27.5t27 31t9.5 23.5l2 35 q0 44 -26 74q-23 27 -54 26h-8q-57 -12 -58 -49q4 -35 25.5 -51.5t27.5 -22.5q-2 -14 -38 -37l-43 -4q-53 0 -129 72q-74 72 -126.5 99.5t-91.5 27.5q-49 0 -82.5 -42t-33.5 -116zM846 324l78 -88l98 -123v131q0 156 33 286q33 135 159 367q125 229 271 455 q72 113 114.5 173t55.5 70q25 20 51.5 67.5t26.5 96.5q0 88 -86 88q-39 -4 -65 -12t-52 -8q-33 0 -41 18.5t-2 36.5q6 -27 14 -33t29 -2q2 0 16 8q2 0 7.5 4.5t9.5 22.5q6 31 -10.5 48.5t-47.5 17.5t-55.5 -26t-24.5 -67q0 -61 31 -100q35 -33 39 -55l6 -31q0 -49 -53 -49 q-31 2 -47 16l-25 19l-4 -6l6 -33l8 -31q0 -12 -12 -43l-39 -86l-92 -196q-154 -309 -239.5 -509t-114.5 -286q-18 -55 -27.5 -86t-15.5 -55z" />
<glyph unicode="W" horiz-adv-x="1687" d="M37 1278q0 -47 7 -100.5t19.5 -109.5t30 -112.5t37.5 -107.5q43 -104 131 -248q92 -152 184 -268q94 -119 95 -148q0 -20 -25 -84q-29 -65 -84 -65h-2q-63 10 -63 108q0 23 4 48.5t10 60.5l14 72q0 29 -13 51t-34 43l-8 8q-14 0 -27 -66q-41 -127 -41 -217 q0 -100 42 -152t102 -52l55 6q39 6 84 60t72 165l24 90q-152 217 -151 238q2 20 41 100q41 78 157 78q121 0 215 -119q98 -119 134 -203q39 -86 67 -239q106 215 107 250l-7 24l-38 90q-18 37 -41 73t-53.5 74t-70.5 81t-91 94q-104 106 -119 272q-16 174 -27 193 q-12 23 -39 22q-23 -4 -35 -21.5t-6 -45.5l23 -97q2 -8 3 -19t1 -28q0 -53 -27 -86l-209 -270l-65 -96q-41 82 -69.5 146.5t-45.5 111.5q-18 49 -28.5 89t-20.5 95q-4 29 -6 46t-4 26v41q0 57 22.5 94t73.5 37q45 0 86 -19l61 -22l50 -6q31 2 47 16q18 18 18 55q0 18 -7 37 t-14.5 34t-14.5 28.5t-7 19.5q0 14 12 14l27 -4q27 0 27 31q1 6 1 12q0 43 -53 43q-55 0 -61 -67q-6 -66 -27 -68q-16 0 -75 53q-60 51 -105 74q-35 18 -74 19q-80 0 -138 -71t-58 -212zM977 1337q0 -39 25.5 -60.5t48.5 -27.5l39 -6q55 0 114 49l68 78q33 39 69 39 q43 0 75 -55.5t32 -136.5q0 -86 -3 -146.5t-7 -95.5l-56 -242q-25 -92 -52 -177t-60 -163q-70 -166 -203 -383q98 0 145 6q53 10 88 27q39 18 123 86q84 70 103 70q25 0 38 -14.5t13 -51.5q-6 14 -23 21q-14 10 -34 10q-29 0 -52 -23q-14 -20 -14 -43q0 -29 20.5 -48 t49.5 -19l41 8q35 12 55 39q25 33 25 76q-6 68 -46 98q-34 25 -73 25q-7 0 -13 -1q-31 0 -86 -14t-110 -43l151 377q12 33 28.5 88t39.5 141q20 76 33.5 132.5t19.5 95.5q12 43 19.5 90t13.5 102l20 144l5 32q0 39 -24 51.5t-93 12.5q-55 0 -76 26q-12 16 -26.5 27.5 t-26.5 17.5l-29 13l-33 6q-39 0 -79.5 -36t-69.5 -99q-27 -61 -56.5 -90t-43.5 -35h-25q4 4 18.5 12t14.5 43q0 51 -51 51q-53 -10 -64 -45z" />
<glyph unicode="X" horiz-adv-x="1568" d="M82 1397q0 -72 51 -131q51 -61 242 -183l135 -90l-166 -194q-47 -63 -86 -125t-68 -125q-57 -123 -77.5 -206t-20.5 -148q0 -133 68 -185q70 -51 147 -51q76 0 129 102q61 106 117 160l-53 -4q-10 -4 -29 -31l-37 -49q-23 -23 -45 -22q-45 6 -63.5 47t-18.5 86 q0 92 63.5 224t213.5 304l96 101q119 -84 187.5 -133.5t88.5 -65.5q29 -27 80 -83t125 -149l31 -57l22 -55q12 -27 14.5 -44.5t2.5 -51.5q0 -45 -14.5 -85t-38 -70t-56 -47.5t-69.5 -17.5l-68 5q-59 10 -59 96q0 90 -39 90q-29 -2 -60 -16q-4 -2 -10 -4.5t-16 -6.5 q-4 -2 -8 -2t-11 -2l-24 -2q-23 2 -27 8l-6 31l-4 25l-8 -4q-14 -10 -20.5 -21.5t-6.5 -40.5t12.5 -46t28.5 -17q10 2 24.5 9t31 17t26.5 15.5t18 9.5q16 -4 23 -33q12 -109 45 -141q27 -39 65.5 -55.5t75.5 -16.5q49 0 99.5 22.5t72.5 51.5q25 29 60 41t84 12l37 -4l53 -2 q31 0 45 13t14 65q0 113 -88 264q-88 156 -229 266q-72 57 -147.5 113.5t-162.5 113.5l-307 205q-76 51 -124 85t-70 52q-51 45 -51 105q0 55 69 55q80 14 123 21.5t64 13.5q39 12 45 66q-29 -37 -62 -37q-33 2 -57 20q-31 25 -31 53q0 35 23 35q20 2 20 17q0 13 -22 29 q-18 12 -42 13q-6 0 -12 -1q-45 0 -60 -18.5t-15 -51.5l8 -47q-111 31 -170 31q-121 0 -121 -121zM608 1085q0 -18 70 -51l55 -41q10 -6 18.5 -12t16.5 -10q4 0 6 -2l68 47q74 51 239 108l314 109q105 47 105 107q0 5 -1 10q-8 51 -110 51l-66 -6q-35 0 -55 10 q-20 14 -21 39q4 27 19 41l14 -25q8 -8 23 -8q20 0 24 18.5t4 28.5q0 18 -16 29q-25 12 -62 12q-39 0 -70.5 -11t-54 -28.5t-35 -38t-12.5 -39.5q0 -47 74 -67q76 -27 82 -43q6 -25 -11.5 -33t-56.5 -8q-57 0 -102 16q-20 8 -41.5 23t-48.5 35l-313 -211q-55 -41 -56 -50z " />
<glyph unicode="Y" horiz-adv-x="1761" d="M59 1208q0 -174 144 -360q141 -184 389 -285l346 -127l-102 -102q-254 -260 -342 -379q-92 -127 -101 -188v-19q0 -43 20.5 -61.5t59.5 -18.5q29 0 82 17l164 55q117 43 168 43q57 0 114 -57q31 -33 71 -63t83 -30q74 0 127 99q12 37 23 45l18 6l16 -6l21 -4q14 2 24 12 l7 27q0 43 -37 43q-51 0 -76 -52q-35 -66 -55 -73q-16 -16 -43 -17q-49 0 -70 62l-45 121q-10 12 -29 12l-53 -8l-68 -11q-29 -4 -49 31q-15 25 -15 48q0 7 1 14l29 81l34 48q70 113 211 196l258 139q72 39 124.5 81t86.5 87q39 53 60.5 126t21.5 161q0 72 -24 143 q-12 37 -37 69t-58.5 54.5t-72.5 36t-80 13.5q-119 0 -160 -60q-39 -61 -41 -82l-6 -43q0 -43 23 -71q27 -31 57 -31q33 0 52.5 22.5t19.5 51.5q-2 25 -17 34l-20 9l-33 -13h-14l10 33q12 27 41 43t55 16q33 -4 46.5 -12t17.5 -29q2 -4 2 -9q0 -40 -92 -156l-166 -205 l-86 -105l-187 54l-137 53q-104 41 -235 182q-129 141 -129 250q0 51 28 86q33 45 58 53q27 14 61 15l72 -11q29 -4 50 -6t32 -2l41 4q55 16 63 25l14 22q-16 0 -34.5 4t-35 14.5t-28.5 28t-18 45.5q0 57 18 71.5t35 17.5l-4 4l-13 8l-26 8q-6 2 -31 2q-43 0 -70.5 -18.5 t-27.5 -55.5q0 -47 -43 -47q-18 2 -52 11.5t-61 17.5q-86 27 -141 27l-68 -9q-39 -14 -71 -39q-45 -33 -70 -87t-25 -130zM1130 1382q6 -33 15.5 -51t25 -27.5t40 -11.5t61.5 -2h43q121 0 143 -30q20 -29 82 -56q61 -25 90 -65l13.5 -13.5t15.5 -17.5q2 -2 3 -4t5 -6 q12 0 31 41q12 27 20 48t19 60q18 63 18 127q0 47 -14 84.5t-47 57.5t-72 20q-49 0 -176 -57.5t-162 -57.5t-37 9l10 30q-4 14 -17 25.5t-30 11.5q-31 0 -55.5 -31.5t-24.5 -83.5zM1204 471l170 207l162 209l6 -51q0 -51 -22.5 -105.5t-73.5 -112.5q-29 -29 -58.5 -52 t-62.5 -40z" />
<glyph unicode="Z" horiz-adv-x="1591" d="M43 1292q0 -59 41 -105t152 -63q55 -6 88.5 -13t50 -16.5t20.5 -20.5t2 -30q-12 -33 -49 -32l-37 8q6 -35 64 -35l43 8l47 29q35 35 35 70q0 57 -54 86q-53 31 -64 47t-11 32l4 27l22 39q23 29 97 49q68 20 176 21q41 0 90 -6.5t86 -14.5q47 -10 89 -23.5t77 -29.5 q-135 -100 -218 -163.5t-114 -92.5q-35 -33 -84 -84t-109 -123q-131 -152 -186 -235l-102 -170q-25 33 -25 92v37q-20 -6 -39.5 -33t-19.5 -66q0 -80 39 -127q-41 -76 -62.5 -150.5t-21.5 -166.5v-23l2 -28q145 -27 233 -27q37 0 78 4t90 10l6 68q0 66 -35 145 q98 -72 320 -149q215 -76 405 -76q68 0 129.5 12.5t108.5 41t74.5 74.5t27.5 112q0 76 -28 110q-29 37 -111 90q-84 59 -84 74q2 10 10.5 21.5t17.5 22.5t16 20.5t7 15.5q0 20 -24 49q-23 31 -43.5 35t-26.5 4q-16 0 -20 -2q31 -29 30 -45q-4 -23 -49 -41q-61 -37 -61 -66 q2 -16 22 -47l47 -59l45 -57q16 -23 17 -39q0 -27 -37 -54q-37 -25 -75 -34t-101 -9q-33 0 -65.5 4.5t-73.5 12.5l-201 51q-63 16 -117.5 34.5t-101.5 37.5l-148 61q-8 -2 -16 -20l-21 -37l-30 -80q10 -12 20 -32.5t17.5 -43t12.5 -45t5 -37.5q-23 -8 -51 -8l-58 2 q6 49 19 92l39 119q27 72 123 229q104 166 281 356.5t460 387.5l76 -45l78 -49q76 -49 137 -50q49 0 75.5 43.5t26.5 153.5v41l-2 82l-18 86q-16 41 -27 41q-8 0 -35 -10l-196 -92q-25 -10 -35 -19q-2 -2 -10 -6q2 -14 45 -37l57 -31l78 41l49 25q10 0 10 -35v-53v-25 q0 -33 -12 -32q-14 0 -170 83q-158 88 -350 140q-201 53 -367 53q-111 -4 -206 -23.5t-165.5 -55.5t-110.5 -88t-40 -120z" />
<glyph unicode="a" horiz-adv-x="1761" d="M27 147q0 -78 49 -115.5t135 -37.5q145 0 266 80q119 80 203 153q94 89 188 222l45 65q-223 -72 -243 -94l-72 -78l-100 -86q-98 -68 -197 -68q-70 0 -101.5 22.5t-31.5 53.5q4 23 15.5 43.5t11.5 40.5q0 25 -22.5 37t-45.5 12q-8 -4 -21 -4l-18 -4l39 -31q14 -8 14 -22 l-78 -92q-37 -47 -36 -97zM207 1434q-1 -5 -1 -10q0 -63 99 -91q109 -35 109 -55q0 -35 -19 -35q-12 -4 -20 -10q6 -23 45 -23l49 7q33 6 33 40q-2 12 -9.5 31t-14.5 36t-13 32.5t-6 25.5q4 23 17 34t67 18l104 14l90 6q104 0 197 -55q-66 -14 -122 -36t-108.5 -53.5 t-102.5 -72.5t-105 -96q-106 -106 -165 -224t-59 -219q0 -106 45 -153q45 -49 104.5 -67.5t151.5 -18.5q98 0 222 37q61 18 103 34.5t65 30.5l172 121q66 47 106.5 78t56.5 47q39 35 48 35q4 -2 5 -5t1 -22q2 -20 14 -27.5t25 -7.5q23 0 41 25.5t18 52.5q-2 16 -8 34.5 t-16.5 34t-28 26t-41.5 10.5q-53 0 -107 -41q-59 -41 -114 -97l108 293l39 -110q12 -20 31 -21l30 2l33 -8q27 -6 43 -18q49 -47 49 -99q0 -66 -43 -84q-10 -4 -17 -10t-13 -10q-2 -2 -4 -3t-7 -5l33 -107q14 -41 19 -55q2 -8 6 -25.5t8 -46.5l20 -110q2 -4 3.5 -12.5 t5.5 -18.5v-43q0 -61 -24.5 -101t-78.5 -40l-61 8l-72 6q-59 0 -94 -23.5t-35 -81.5q0 -47 31 -67q14 -10 19 -15.5t12 -13.5q0 -4 -7 -10l-16 8q-2 -2 -5 -6t-3 -16q2 -29 18.5 -40.5t40.5 -11.5q35 0 59.5 18.5t24.5 41.5q0 31 -26 49l-41 35q-10 10 -11.5 15t-3.5 11 q4 23 39 23q18 0 44 -11.5t59 -41.5q35 -31 81 -53.5t97 -22.5q53 0 116 45q66 47 66 170q0 96 -41 223q-20 61 -57 160.5t-90 241.5q-109 279 -136 380q-27 100 -26 127q0 51 22 80q31 31 80 31q33 0 86 -18q-53 96 -102 110q-49 19 -258 19q-279 0 -467.5 -8.5 t-292.5 -24.5q-207 -35 -219 -96zM496 756l6 80l20 69l29 58l84 102q37 41 86 79t113 70q126 70 210 99l-4 96q53 -63 54 -170q0 -80 -34 -186.5t-132 -270.5q-98 -162 -137 -192q-37 -31 -103 -37q-109 0 -150.5 57.5t-41.5 145.5z" />
<glyph unicode="b" horiz-adv-x="1673" d="M-59 109q2 -33 41 -33q29 0 45 12q25 12 36 12q33 0 117 -47t131 -47t83 25.5t42 46.5q10 25 10 49l-10 57l-22 86q-16 51 -25 172l-12 117l-105 -2v-340q0 -31 -17 -51.5t-42 -20.5q-39 2 -70 23q-41 23 -55 22l-27 5q-23 -4 -49 -33q-29 -29 -55 -29l-16 -4v-20z M80 709q2 -29 16 -64q20 -35 52 -47t98 -12h28q182 0 336 47q94 29 204 65.5t239 83.5l112 45q162 -158 209 -221q59 -66 81 -141.5t22 -122.5q0 -59 -22.5 -109.5t-64.5 -89.5t-102.5 -60.5t-136.5 -21.5h-86q-184 0 -266 31q-74 35 -84 66l-19 51v31l6 61l9 47 q0 27 -13 39q-12 16 -39 25l-116 43q-88 33 -88 53q0 8 18.5 19.5t18.5 25.5q0 27 -29 27q-27 -2 -37 -17q-20 -23 -20 -47q0 -41 96 -84q98 -41 98 -70q-2 -18 -37 -53q-25 -23 -35 -34t-24 -35q-23 -39 -23 -74q0 -31 18.5 -59.5t51.5 -51t75 -37t91 -20.5l190 -23 q8 0 18.5 -1t26.5 -3h52h71h66q301 0 428 97q125 98 125 249q0 121 -49 201q-14 23 -28.5 44.5t-31.5 41.5q-18 27 -37.5 51.5t-42.5 51.5q-59 66 -104 108.5t-78 63.5q-66 43 -125 43l-82 -7q-27 -6 -48 -8t-30 -2q184 135 273 219q92 88 92 187q0 61 -43 123 q-41 61 -115 84q-71 24 -284 24l-795 -24q-31 -4 -33 -11l-22 -24l-11 -29q4 -8 10.5 -15t30.5 -30q63 -84 76 -145q14 -57 25 -156l18 -139l6 -56q-2 -8 -15 -15t-32.5 -16.5t-44 -23.5t-49.5 -39q-45 -45 -45 -110zM326 1407q0 8 41 8l108 6h123l141 2q61 0 109.5 -2 t85.5 -7t67.5 -14t59.5 -24q33 -43 41 -73q12 -31 15 -43.5t3 -47.5q0 -47 -47 -135q-45 -84 -258 -192q-106 -53 -195.5 -85t-162.5 -42l-82 -10l-10 542q0 33 -13 62zM397 846q2 -14 13 -14q4 0 8 2q29 10 53 53q23 55 23 96q0 53 -27 82q-6 4 -12 9t-15 9q-2 0 -4 2 q-8 -6 -20 -20l10 -35q-4 -31 -16.5 -37t-12.5 -147z" />
<glyph unicode="c" horiz-adv-x="2048" d="M20 705q0 -330 205 -555q205 -227 568 -228q150 0 297 39q78 20 156.5 48t154.5 63q39 -18 94 -19q59 1 100 25q36 21 36 47q0 4 -1 8q-6 33 -59 45q-59 16 -82 96q-27 70 -60.5 99.5t-74.5 29.5q-55 0 -119 -45t-145 -125q-94 -88 -156 -131q-35 -25 -77 -34t-99 -9 q-45 0 -103 11q-23 8 -63.5 23.5t-97.5 41.5q-113 51 -187 201q-74 147 -74 334q0 47 6.5 95t14.5 85q10 45 29.5 94t48.5 107q57 113 215 204q156 94 379 95l102 -7q57 -6 93 -35.5t36 -64.5q0 -31 -29 -65q-31 -35 -161 -121q-133 -90 -133 -164q0 -70 42 -95.5t128 -25.5 q25 4 49 4h53q39 4 65 4h58l22 2l6 -8q0 -8 -16 -37l-12 -28q0 -12 35 -13q37 0 68.5 29t31.5 63q-4 4 -4 17q0 12 -17.5 40.5t-48.5 35.5q-25 8 -143 8q-39 0 -39 22q2 14 14 27l295 78q170 53 170 225q0 59 -34.5 116.5t-149.5 121.5q-118 65 -483 65h-148l-164 2 q-184 0 -225 -33l-166 -221q-102 -133 -141 -252q-23 -72 -34 -115.5t-17 -88.5q-6 -43 -7.5 -78t-1.5 -53zM1128 55l99 84l53 41q12 6 35 6q25 0 24 -10q0 -18 -30 -37l-70 -41q-41 -25 -111 -43zM1509 315l15 -53q14 -45 32 -45q25 2 111 86q92 72 137 98q59 35 103 35 q23 0 41 -11t18 -34l-8 -45l-8 -45q0 -35 37 -41h24l-6 12q-4 12 -4 29l6 37l25 49q35 53 34 98q0 80 -114 80l-64 -6q-37 -14 -70.5 -26.5t-62.5 -26.5q-31 -16 -68.5 -42t-84.5 -61q-92 -68 -93 -88z" />
<glyph unicode="d" horiz-adv-x="1828" d="M6 10q0 -12 17 -18l34 -8q88 0 144 30q49 31 73 31h5q137 -37 239 -37q180 0 201 94l4 33q0 51 -68 98q-66 47 -65 68q2 10 6 19.5t8 19.5l31 8q23 0 58.5 -28.5t90.5 -114.5q29 -41 67 -82t85 -82q94 -80 266 -80q72 0 182 31q106 27 205 119t157 216t58 279 q0 137 -61.5 281.5t-180 273.5t-209.5 184.5t-167 55.5l-66 -10q-16 -6 -44.5 -18.5t-43.5 -20.5q150 -78 283 -172q66 -47 124 -105.5t105 -130.5q96 -145 96 -326q0 -180 -98 -298.5t-260 -118.5q-111 0 -291 112q-176 113 -282 113q-84 0 -123 -33q-37 -35 -37 -80 q4 -33 11 -58.5t28 -55.5q2 -4 2 -19l-10 -4l-41 8q-37 8 -95 144q-55 131 -55 346l6 151q6 47 13.5 91.5t19.5 95.5q12 55 26.5 105t27 89t21.5 63.5t9 30.5q0 18 -25 25q-33 14 -32 41q10 47 77 57l50 2l57 2q14 0 35.5 -1t83.5 -9l112 -20q14 -2 33 -13q12 -4 19 -8 l-11 -16l-26 -29q-8 -4 -15.5 -8t-17.5 -6q14 20 14 33l-14 18q-12 12 -27 12q-20 -2 -32.5 -15t-12.5 -32q0 -18 18.5 -39.5t43.5 -21.5t119 59q94 61 129 74q37 12 50 14t40 2l73 2l52 4q20 8 22 27l4 25q-2 23 -18.5 30t-69.5 13q-37 8 -126 12t-212 4q-25 0 -83 1 t-152 3q-184 6 -285 6l-131 -4q-33 -6 -47 -16l-37 -45q-27 -33 -27 -47l62 -84q24 -51 24 -152v-8l37 -913q0 -53 -28 -70l-78 -37q-53 -25 -65.5 -78t-51.5 -61q-37 -6 -37 -23z" />
<glyph unicode="e" horiz-adv-x="1910" d="M59 1470q0 -66 58 -96q59 -35 59 -223l8 -305q37 20 62.5 31.5t42.5 15.5q39 16 78 16l22 498l569 14q80 0 121 -4t56 -10q35 -16 34 -41q-2 -16 -67.5 -75.5t-65.5 -100.5l6 -39q8 -25 28 -41t69 -16t147 18q37 0 37 -25l-14 -45q-8 -18 6 -18l59 20q41 23 41 35l2 27 q0 61 -102 61q-102 6 -103 25q6 18 61.5 49t125.5 53q74 31 104.5 63t30.5 66q-4 29 -21.5 50.5t-62.5 44.5q-108 38 -161 38h-3q-20 2 -147 3.5t-363 1.5l-444 -9l-205 -10q-63 0 -66 -12q-2 -6 -2 -60zM129 649q0 -117 115 -219l213 -160l133 -90l51 -37q-8 -2 -41 -2 q-35 0 -60.5 7.5t-47.5 23.5q-47 33 -68 68l-35 49l-33 24l-149 111l-12 -240q2 -20 17 -28.5t33.5 -17.5t36 -25.5t25.5 -51.5q18 -45 60 -45l1034 -16q199 0 288 42t89 128q0 68 -64 100q-61 37 -61 52l-2 26q2 27 22.5 36t75.5 24q57 16 81.5 24t37.5 19q35 23 35 90 q0 45 -21 67q-16 23 -84 45q-63 20 -63 54q0 31 -19 30q-20 -4 -35.5 -15t-15.5 -40q4 -29 20.5 -49.5t16.5 -38.5q-6 -29 -176 -63.5t-170 -131.5q0 -70 108 -116q100 -42 100 -84q0 -4 -1 -9q-6 -39 -48 -53t-143 -14l-137 6l-197 21q-72 12 -139.5 26t-140.5 37 q-78 23 -143.5 59.5t-118.5 83.5q-104 92 -121 129q-12 33 -13 154v106q147 0 254 6.5t172 20.5q135 27 160 94.5t25 89.5q0 18 -12.5 61.5t-124.5 61.5q-117 20 -117 33q0 16 24 27l27 16l-2 8q-2 2 -2 4q-6 5 -14 9l-27 6q-35 0 -64.5 -27t-29.5 -55q2 -12 11 -26.5 t18.5 -29t16.5 -27.5t7 -22q0 -53 -170 -82q-86 -14 -151.5 -29.5t-116.5 -35.5q-102 -37 -117 -174v-25z" />
<glyph unicode="f" horiz-adv-x="1720" d="M70 1503l94 -217q49 -139 61 -268l13 -148q-2 -23 -27 -53q-27 -29 -48.5 -80t-21.5 -116q0 -96 31 -166q16 -33 33.5 -61.5t36.5 -55.5l170 -215l-35 -8q-10 0 -13.5 19.5t-19.5 35.5l-125 170l-102 -272q-14 -23 -15 -41q0 -16 43 -17l45 -8h62q27 0 57.5 4t59.5 10 l133 33q29 -16 64.5 -29.5t88.5 -13.5q61 0 92 30t31 75q0 41 -27.5 69.5t-70.5 28.5q-47 0 -84 -14l-96 -37l-56 43l-61 63l33 461q0 63 -21 63q-12 0 -39 -12q-70 -20 -92 -60t-22 -104v-47l2 -43q-27 27 -27 109q0 43 31 110q33 63 190 88l258 23q125 25 125 129 q0 49 -24.5 75.5t-55.5 37.5q-141 45 -141 98q0 31 55 68q-14 8 -28 8l-33 -8l-43 -27q-29 -23 -29 -53q0 -16 23 -58q25 -41 24 -53q0 -25 -22.5 -43t-85.5 -39l-62 -20q-14 141 -24 222t-17 103l-14 68l-27 86q233 24 310 24h6l196 7q86 0 160 -7.5t137 -21.5 q123 -27 164 -74q41 -45 41 -67q-2 -16 -9 -33t-17 -37l-48 -78q-20 -35 -20 -63q0 -45 24.5 -79t69.5 -34h12l39 8l54 13q20 4 41 4q23 0 39 -19q20 -20 57 -26q45 0 45 41q0 20 -16 32q-29 29 -49.5 39t-53.5 10l-53 -6l-53 -8q-25 4 -29 9t-4 32q16 43 47 64.5t94 29.5 l125 39q78 35 78 103q0 137 -158 172q-161 34 -409 34l-500 -2l-369 -12q-184 0 -192 -18zM582 104q27 21 39 21q27 12 55 12q43 0 47 -22q0 -18 -17.5 -30.5t-35.5 -12.5q-27 0 -51.5 11t-36.5 21z" />
<glyph unicode="g" horiz-adv-x="1652" d="M37 987l10 -26l10 -109q2 -20 21.5 -33.5t19.5 -36.5q0 -104 13.5 -184t40.5 -149q29 -68 72.5 -132.5t103.5 -123.5q-12 31 -28.5 74.5t-23.5 72.5q-4 31 -4 70v98q-16 86 -30 117q-6 39 -6 147q33 -41 34 -61l19 -76q0 -334 57 -447q59 -115 229 -161q172 -47 211 -50 q20 -2 39 -4t35 -6h64q139 0 268 58q66 29 114 66.5t81.5 80.5t54 86t28.5 80q12 47 19.5 88t17.5 98q20 111 70 129q47 23 47 37q0 43 -46 60.5t-124 17.5q-63 0 -127 -14l-156 -37q-86 -18 -133 -19q-51 0 -69.5 33t-38.5 33q-35 -4 -35 -43q0 -23 12.5 -43.5t43 -35.5 t80.5 -24.5t124 -9.5q115 0 150 -26q39 -25 47 -117q0 -162 -59.5 -215t-116.5 -92l81 82q55 68 62 116q10 51 10 70l2 27q0 94 -41 112.5t-74.5 21.5t-74.5 3q43 -49 59.5 -88t16.5 -80q0 -61 -35 -113.5t-84 -83.5q-47 -31 -88 -40t-105 -9q-94 0 -188 25q-45 14 -92 39.5 t-99 60.5q-100 70 -131 154q-14 41 -24.5 76.5t-14.5 64.5l-24 154q-18 74 -113 118q-92 47 -115 74q-20 27 -36 35l-21 10h-10zM117 973q0 -43 96 -78l20 -4q29 4 50 78q23 78 69 176q57 113 199 184q139 72 307 72q123 0 238 -43q113 -41 174 -109.5t61 -146.5 q0 -35 -17.5 -52.5t-39.5 -17.5q-29 2 -88 27q-72 28 -101 28h-2h-5q-44 0 -78 -35q-37 -36 -42 -98q2 -33 14.5 -52t31.5 -19q14 2 14 20q-4 16 -4 31l-2 33q2 27 11 36t32 9q31 -4 96 -90q68 -86 164 -86t141 66.5t45 162.5q0 106 -65 221q-63 117 -200.5 203t-317.5 106 l-113 7q-264 0 -422 -140q-152 -137 -211 -288q-55 -152 -55 -201z" />
<glyph unicode="h" horiz-adv-x="1816" d="M41 -8q0 -33 22.5 -42t65.5 -9h27q37 0 50 10t13 29l-4 38q2 25 27 25l67 -14l113 -29q20 -4 34.5 -6t25 -4t28.5 -3t47 -1q25 0 49.5 4t48.5 10q51 12 52 53q0 12 -13 41l-37 76q-27 55 -43 121q-6 20 -9 35.5t-4 29t-2 30.5t-1 46q0 172 82 285q84 115 248 186 q166 74 325 74q61 -2 114.5 -14.5t93.5 -36.5q41 -25 61 -65q19 -36 18 -87v-10q0 -82 -47 -205q-47 -125 -143 -276q-96 -158 -97 -217q0 -35 14.5 -63t35 -47t43 -29.5t40.5 -10.5q43 0 100.5 39t143.5 111l37 12q20 -2 21 -21q-4 -16 -5 -34l-2 -29q4 -23 12.5 -35 t32.5 -12l37 6q6 0 17 10q-4 10 -17 10q-29 0 -28 27q4 20 18 41.5t21 42.5q8 18 8 49q0 33 -19 49q-23 20 -43 25l-43 4q-59 0 -123 -70q-33 -35 -56 -55t-40 -29l-45 -28l-20 -6q-29 0 -29 40q0 53 147 248q74 98 125.5 172t77.5 123q57 94 58 215q0 66 -26 121t-70 96 t-105 68t-135 33l-33 4h-31q-229 0 -491 -133q-264 -133 -353 -271q-90 -139 -104 -266l-37 -289q-24 -26 -142 -26h-9q-129 0 -130 -72q6 -33 16.5 -44t10.5 -26q-4 -16 -16 -16l-25 2l-33 6q-18 0 -18 -16zM283 1444l34 -51q12 -14 21.5 -33t17.5 -37q25 -68 37.5 -123 t12.5 -115q6 -25 8 -57.5t2 -75.5v-26v-31v-37v-47v-57v-72v-88l63 123q16 27 30.5 47t29.5 37l12 123q2 14 6 49v88q0 178 64 268q63 94 208 180q6 6 7 19q0 4 -13 10l-200 10q-184 0 -211 -8q-29 -10 -78 -47q-25 -18 -39 -37z" />
<glyph unicode="i" horiz-adv-x="669" d="M47 82q2 -14 6 -24.5t8 -20.5l41 -37q2 -2 5.5 -6t11.5 -12q2 0 6 -5q-2 -2 -5 -7t-7 -7l-11 -14q2 -8 56 -8q49 6 49 30q0 10 -29 45q-14 16 -19 26.5t-9 18.5q2 8 16 15q10 0 51 -19q20 -12 47 -21t51 -16q27 -6 42.5 -8t43.5 -2q63 0 111 19q41 25 41 55 q-4 27 -61.5 115t-57.5 286v37t-2 51q-2 31 -2 54v41v200q0 125 18.5 205t61.5 180q45 98 45 162q0 144 -131 162h-21q-55 0 -88.5 -28.5t-33.5 -84.5q0 -43 24.5 -68.5t59.5 -25.5q27 0 47 10l30 31q12 14 13 35q-2 12 -25 53l12 4q20 -4 35 -24q18 -29 19 -58 q0 -47 -50 -98q-49 -61 -143 -61t-104 -29l-6 -31q4 -14 22 -37.5t45 -83.5q14 -33 24.5 -65.5t14.5 -67.5q8 -31 8 -129v-24v-33v-39v-47q0 -328 -22 -400q-23 -68 -113 -96q-86 -27 -109 -45q-16 -16 -16 -53z" />
<glyph unicode="j" horiz-adv-x="1753" d="M39 455q0 -258 166 -396q168 -139 401 -139q188 0 373 82q190 84 256 182l82 121q10 10 14 14.5t10 6.5l50 -27q27 -14 96 -14q72 0 82 67q8 68 20 68q39 -39 70 -39t42 22.5t11 71.5q-6 43 -25.5 60.5t-41.5 17.5q-31 -4 -56 -14q-25 -12 -53 -54q-27 -39 -66 -55 l-57 -8q-72 0 -139 37l-135 88q-27 0 -131 -148q-102 -145 -148 -196q-45 -47 -117 -76q-45 -18 -62 -23.5t-42 -9.5l-64 -6q-113 0 -196 72q-80 70 -80 176l8 63q8 33 13.5 44.5t13.5 27.5q10 20 25.5 37.5t29.5 31t24.5 22.5t10.5 16l-14 32q-16 33 -35 43q-20 16 -47 17 q-23 -2 -63 -44t-66 -96l-6 39q0 43 24 72q23 35 76 47l35 4q102 0 133 -233q33 -233 125 -234q74 0 86 109q14 109 26 121q20 8 27 -9q10 -18 29 -22q47 0 47 47q-2 23 -21.5 38t-48.5 15q-72 0 -92 -86q-23 -88 -45 -90q-20 -2 -31.5 21.5t-11.5 62.5l29 94q31 76 36 142 l9 86l-4 34l-7 35q66 100 66 181q0 47 -19.5 79.5t-42.5 44.5q-20 10 -36 11q-29 0 -40.5 -17.5t-11.5 -54.5q0 -20 19 -20l37 4q20 -2 20 -25l-12 -59q-16 -39 -27.5 -49.5t-27.5 -10.5l-27 4l-41 11q-23 6 -59 6q-145 0 -258 -123q-115 -121 -115 -350zM975 1507 q0 -39 63 -65q66 -25 86 -45q43 -45 53.5 -69.5t16.5 -53.5l20 -66q10 -35 11 -123v-28v-33v-41l-8 -274l-9 -136q0 -29 6 -36q4 -4 18.5 -16.5t39.5 -28.5q51 -33 82 -33q53 0 53 237l20 463q0 49 10.5 89t16.5 57q12 35 27.5 66.5t31.5 60.5q0 16 -18 28q-16 12 -43 47 q-25 37 -66 37l-382 12q-6 0 -21 -6q-4 0 -6 -2zM1047 297q0 16 16 45t39 41q29 16 39 16q2 0 12 -6l-23 -45q-23 -37 -41 -51t-30 -14q-12 2 -12 14z" />
<glyph unicode="k" horiz-adv-x="1716" d="M41 102q0 -35 37 -65q41 -23 41 -39q-2 -14 -17 -21l-14 -12q8 -4 18.5 -8t34.5 -8q55 0 56 41q0 18 -13 41l-16 30q-25 14 -25 27q2 12 29 12l31 -14l45 -20q127 -66 274 -66q92 0 124 25.5t32 44.5q0 12 -53 65q-51 53 -52 119q0 102 82 235q41 68 90.5 131.5 t102.5 122.5q59 66 103 110t71 67q37 33 67.5 57t69.5 51q63 49 234 154q86 53 138 88t75 55q45 39 45 105q0 39 -27 63.5t-78 24.5q-47 0 -164 -39q-66 -25 -113.5 -32t-107.5 -7q-63 0 -69 18q0 25 4 37q14 12 30 12q14 0 21 -6l24 -28v28q0 27 -11 46.5t-40 27.5l-26 2 q-31 0 -67 -29.5t-36 -77.5q0 -68 64 -100q27 -18 53 -24l57 -7l45 2h17q8 0 18 -2q-4 -10 -22 -28l-60 -58l-82 -88l-327 205q-43 27 -133 66q-27 12 -43.5 19t-22.5 11q-16 8 -31.5 13.5t-27.5 7.5q-25 8 -66 8q-78 0 -102 -41q-23 -41 -23 -51q0 -8 6 -17l66 -32 q55 -29 55 -561l-2 -205v-215l80 157l61 103q23 29 23 57l-6 64l-31 499q63 -14 158 -63l159 -90l91 -56q-143 -154 -236.5 -258t-136.5 -161q-41 -57 -78 -122t-65 -141q-59 -147 -80 -165q-23 -16 -146 -17h-88q-29 0 -61.5 -22.5t-32.5 -55.5zM780 18q12 -29 51 -28 q31 2 50 14q29 16 28 45q0 39 -8 53l-12 37q2 14 22 25q14 6 56 -25l118 -94q80 -57 151 -80.5t136 -23.5q59 0 109 20q29 10 60.5 25.5t66.5 38.5q71 46 71 198q0 154 -104 348q-51 98 -121 189.5t-162 183.5l-86 90l-112 -86l118 -108q96 -100 154 -236q57 -129 57 -246 q0 -92 -43 -155q-47 -70 -125 -70h-26q-80 0 -170 66q-90 68 -119 71q-31 10 -49 11q-51 0 -80 -35t-29 -82q4 -27 20.5 -58.5t16.5 -46.5q-12 -23 -26 -22q-14 -3 -14 -13q0 -3 1 -6z" />
<glyph unicode="l" horiz-adv-x="1869" d="M37 61q0 -4 18 -12l25 -6q16 2 47 33q35 35 51 35q10 -2 19.5 -4.5t13.5 -4.5l76 -49q70 -35 121 -35q35 0 68.5 16.5t53.5 49.5l29 25l19 -13q47 -29 88 -48t75 -34q71 -24 186 -24h9l55 2l205 20q154 20 287 133q131 113 131 271l61 22q25 8 33 8h27l34 -4 q27 -6 39 -14l25 -20v-19q0 -14 18.5 -35.5t42.5 -21.5q27 4 44.5 22.5t17.5 40.5q0 39 -41 76q-23 20 -50.5 30.5t-64.5 10.5h-26q-31 0 -80 -12l-90 -31q-23 33 -39.5 53.5t-28.5 30.5q-20 27 -100 39q-39 8 -54.5 10t-42.5 2l-73 2q-53 0 -54 21q0 29 86 51 q43 14 69 26.5t39 24.5t16 26.5t3 32.5q0 41 -26.5 68t-75.5 27q-39 0 -62.5 -14.5t-29.5 -34.5q31 10 45 10q31 0 31 -35t-131 -80q-129 -47 -154 -92q-23 -49 -23 -78q0 -53 43 -90q45 -37 115 -37q27 0 39 2t39 8l96 29q31 8 45.5 11t42.5 3q88 0 88 -112q0 -41 -13 -72 t-62 -76q-49 -43 -108.5 -55t-156.5 -12l289 151l27 21q6 12 6 35q-4 23 -8 28q-2 0 -2 2l-101 -47q-29 -16 -51 -28.5t-37 -20.5q-14 -6 -36.5 -15.5t-51.5 -21.5q-84 -37 -209 -37q-137 0 -346 70q33 -55 73 -88t89 -51.5t107.5 -23.5t127.5 -5q-33 -14 -56 -18.5 t-56 -4.5q-74 0 -142.5 34t-140.5 100q-68 72 -86 149q-18 82 -30.5 160t-12.5 172q-49 0 -78.5 -11.5t-29.5 -29.5l6 -184q-16 6 -36 37.5t-20 68.5q0 72 37 108.5t90 36.5q25 0 47.5 -10t32.5 -16q-23 -16 -22 -37q0 -4 1 -8l3 -12q16 -35 55 -35q29 0 48.5 24.5 t19.5 55.5l-8 41q-8 20 -31 38q-41 27 -55 31q-16 8 -68 14q0 49 6 112t17 124l40 223l37 146l39 108h-295q-39 0 -63.5 -31.5t-26.5 -64.5l-6 -23q2 -14 51 -36q50 -19 56 -82l36 -500l-45 -31q-33 -20 -45 -53q-29 -53 -28 -109q0 -78 37 -135q43 -55 70.5 -71.5 t27.5 -30.5l-10 -88q-8 -70 -36 -99.5t-67 -29.5l-37 6q-8 2 -39 22q-20 23 -36.5 30t-34.5 7q-25 2 -39.5 -17.5t-25.5 -45t-19 -50t-17 -32.5z" />
<glyph unicode="m" horiz-adv-x="1869" d="M-18 27q0 -35 25.5 -51.5t41.5 -16.5q29 0 51 23q25 23 45 59q20 39 48 39q8 -4 32.5 -17.5t65.5 -39.5q82 -51 131 -52l24 2l46 13q37 14 55 52t18 116q0 27 -5 81t-15 138l-37 278l-23 162v84q0 117 27 182v13q-96 0 -158 61q-57 63 -57 152q0 53 22 108q31 55 74 92 l33 15l18 10q-12 2 -26 3t-39 1q-49 0 -67.5 -6t-43.5 -29q-31 -35 -30 -96l49 -340q4 -23 8 -55.5t12 -73.5q2 -16 5 -57t10 -109q8 -68 11 -132.5t3 -123.5l-10 -176q-12 -104 -38 -142t-67 -38h-31q-33 0 -54 -15.5t-40 -60.5l-24 -47q-8 2 -13.5 23.5t-27.5 21.5 q-49 0 -49 -51zM317 1307q0 -78 56 -140q57 -57 127 -57q33 2 57 16q31 14 31 48q-10 63 -51 63q-43 0 -43 -41l8 -45q-39 27 -39 74q0 27 11 53.5t29.5 45.5t43 31.5t51.5 12.5q133 0 168 -184q35 -186 35 -690q0 -70 -5 -136.5t-14 -111.5q-12 -53 -28.5 -92t-29.5 -67 t-23.5 -44t-10.5 -23q0 -34 59 -34h3h22h64l69 -2q66 0 88 6q23 10 23 24l-14 56q-8 23 -15.5 49t-11.5 55l-39 528q0 479 20 574q20 92 125 92q88 0 136 -39q25 -18 48 -47t42.5 -63.5t35 -71.5t23.5 -74q4 -20 6 -35.5t4 -30t3 -39t1 -59.5q0 -133 -39 -297 q-23 -92 -46 -174t-50 -155l-67 -203q-10 -41 -12.5 -59.5t-2.5 -53.5q0 -86 32 -129t87 -43l47 10q29 10 66 37t153 150q114 119 162 119h4q31 -6 31 -60q0 -29 8 -45t20.5 -24.5t26 -11.5t23.5 -3q37 0 53 23q18 18 18 39q0 7 -2 14q0 41 -30 41q-39 0 -41 -14.5t-5 -20.5 t-8 -12q-12 2 -18 20l23 62q14 29 14 45q0 14 -13.5 39.5t-60.5 25.5q-41 0 -94 -26q-27 -12 -62.5 -37t-80.5 -64q-89 -73 -131 -73h-1q-27 2 -39 33.5t-12 58.5q0 66 92 260q47 98 81 177t57 138q47 125 47 287q0 86 -17.5 169t-72.5 200q-51 117 -174 157 q-117 39 -367 39h-170q-225 0 -317 -26q-47 -12 -80 -37t-54.5 -54.5t-32 -62.5t-10.5 -61z" />
<glyph unicode="n" horiz-adv-x="1814" d="M49 92q0 -37 23 -65q33 -29 65 -29q33 0 60 20l61 52q33 33 49 32q10 0 70 -47q57 -45 127 -45q86 0 122 46t36 147q0 41 -6.5 95t-16.5 126l-45 285q-25 143 -25 180l-2 57l8 84q12 41 21 49q-4 4 -11 5t-30 3q-43 12 -78 54.5t-35 124.5q0 51 14.5 89t41.5 77 q59 79 96 110q-129 0 -156 -12q-25 -8 -59 -49q-8 -10 -15.5 -18.5t-11.5 -16.5t-6 -14l41 -101q10 -35 20.5 -109.5t20.5 -189.5q10 -113 16.5 -225.5t6.5 -228.5q0 -225 -30 -319.5t-73 -94.5q-14 0 -37.5 17.5t-42.5 17.5l-28 -9q-14 -6 -31 -22l-27 -35l-24 -35 q-10 -16 -33 -16q33 20 33 51q-4 25 -15 33q-14 14 -37 10q-25 -8 -41 -30.5t-16 -53.5zM461 1270q0 -76 39 -123q39 -43 96 -43q43 6 72.5 41t29.5 74q-2 25 -13 41t-36 16q-23 -4 -28 -16l-7 -23q0 -23 23 -45q-43 0 -43 39q0 74 98 127q102 53 223 53l93 -8 q47 -8 108.5 -37t102.5 -67.5t70.5 -114.5t29.5 -180q0 -141 -59 -338l-117 -373q-57 -172 -58 -270q0 -39 9.5 -64t25 -39t36 -19t40.5 -5q27 0 62.5 13t74.5 37.5t78 58.5t74 77q72 86 107.5 121t68.5 35q16 0 22 -13l9 -18l-15 -41l-12 -51q0 -31 25.5 -48.5t44.5 -17.5 q18 0 47 17l28 30q4 8 5 31q0 39 -33 45q-27 0 -33 -11t-8 -44q-16 16 -17 37q4 31 23.5 66.5t19.5 68.5q-8 49 -57 49q-45 0 -78 -31l-188 -186q-51 -45 -133 -45q-70 8 -70 71q0 43 19 103q20 57 135 313q123 264 153.5 381t30.5 232q0 158 -57 245q-57 92 -125 113 q-68 25 -267 25h-145q-225 0 -315 -23q-43 -12 -75 -32.5t-55.5 -45t-40 -50.5t-24.5 -48q-8 -29 -11 -42t-3 -48z" />
<glyph unicode="o" horiz-adv-x="1542" d="M45 926q0 -23 3 -47.5t7 -53.5l33 -116l-6 -95l-2 -79q0 -43 4 -81t10 -79q14 -80 68 -176q53 -92 112 -129q31 -16 73 -36t95 -42q98 -33 285 -33q154 0 298 27.5t261 95.5q123 74 178.5 205t55.5 286q0 49 -4.5 87t-12.5 75q-12 82 -52 191.5t-126 234.5l-90 113 q-115 127 -221.5 203.5t-220.5 119.5l-80 -38l-68 -37q-49 -31 -86 -56.5t-67.5 -50t-57 -50.5t-53.5 -56q61 -6 90 -23q31 -14 80 -53l94 82q29 18 54.5 31.5t58.5 25.5q123 -20 319 -198q193 -174 223 -306l43 -163q8 -25 9 -91q0 -88 -35 -173t-103 -136 q-66 -49 -146.5 -74.5t-180.5 -25.5q-119 0 -246 48t-238 142q-111 96 -188 244q-76 150 -76 268q0 86 21 109l39 43l34 24q-23 -20 -38 -45.5t-21 -52.5l-12 -53l-2 -35q0 -41 22 -98l43 -101l58 183q16 49 30.5 83.5t30.5 61.5q33 57 64 57q37 -6 41 -40.5t4 -94.5 q-1 -16 -1 -30q0 -29 5 -55q8 -38 23.5 -65.5t37 -42t43.5 -12.5q31 2 60 25q29 33 47 72l37 78q23 29 38 28q12 0 23 -12l18 -10q4 6 5.5 11t1.5 21q-2 31 -23 54q-16 10 -23.5 12t-13.5 4l-37 -16q-27 -14 -57 -97q-4 -10 -9 -23t-13.5 -23.5t-15.5 -16.5t-13 -2 q-14 8 -15 53q2 14 3 24.5t1 18.5v25l3 75l-7 72q-4 23 -16 52.5t-35 55.5q-24 26 -60 44q-32 16 -73 16h-10q-72 0 -150 -45q-82 -43 -114 -98q-18 -29 -30.5 -50.5t-21 -45t-12.5 -52t-4 -67.5zM211 424q12 -4 55 -80q41 -51 79 -90t77 -66q76 -53 233 -104 q-137 0 -252 59q-108 64 -165 199l-21 55z" />
<glyph unicode="p" horiz-adv-x="1925" d="M92 86q-2 -8 -2 -16q0 -17 8 -34q13 -26 45 -26l41 8q33 8 74 74t70 66q27 -4 41 -15q14 -8 73 -77q59 -66 125 -66q106 0 146 94q23 51 31 105.5t8 134.5l-7 110l-6 113q18 -12 37 -18.5t53 -6.5q18 0 52 7.5t67 13.5q25 6 40.5 10t24.5 7t15 4t14 1q35 0 41 -22l7 -33 q0 -29 -41 -28q25 -25 51 -25q33 0 58.5 24.5t25.5 65.5l-8 37q-6 16 -30 42t-65 26q-25 0 -88 -19q-33 -8 -56.5 -12t-39.5 -4l-55 8q-27 6 -84 41q-55 33 -56 104q0 33 25 57.5t49 24.5q43 0 108 -98q60 -89 89 -89q3 0 6 1l16 8l-8 18l-102 144l504 -182q41 -20 73 -27 l80 -4q82 0 156 39t117 106q45 70 65.5 125t20.5 129q0 68 -29 144q-27 72 -109 159q-80 90 -217 135q-113 45 -212.5 60.5t-203.5 15.5q-51 6 -91 8t-64 2l-117 3h-129l-217 -9q-70 -8 -70 -59q2 -20 11.5 -54t17.5 -61q14 -43 27.5 -127t23.5 -209q16 -135 22.5 -239.5 t6.5 -208.5q0 -131 -4 -216t-12 -126q-16 -80 -48 -86q-20 4 -92 65q-70 70 -119 70q-27 -4 -56.5 -29.5t-29.5 -62.5q0 -80 -17 -115t-38 -35q-27 0 -43 29zM623 1188q0 29 12 63q8 18 19.5 28.5t21.5 20t16 21.5t6 33q-10 39 -47 59l6 4l35 -2h47q322 0 499 -46t239 -107 q63 -59 84.5 -108.5t21.5 -96.5q0 -33 -12 -68t-38 -62.5t-68 -44.5q-34 -13 -77 -13q-11 0 -22 1q-37 0 -101.5 6.5t-158.5 16.5l-285 37q-39 43 -63 80q-29 45 -39 110q0 12 2 25.5t4 19.5l14 -14q18 -12 27 -12q16 0 31.5 25.5t15.5 43.5q0 35 -20 49q-23 23 -54 23 l-41 -6q-25 -6 -41 -28.5t-16 -55.5q0 -49 30.5 -117.5t92.5 -154.5q-41 0 -70 -27l-14 94q-2 18 -11.5 40t-19.5 47.5t-18 55t-8 60.5z" />
<glyph unicode="q" horiz-adv-x="1558" d="M18 768q0 -248 121 -436q125 -197 273 -266q117 -63 178 -72q33 -4 51 -7t27 -3q8 -2 18 -2h23q-47 59 -79 99t-38 48l-133 84q-123 96 -170 219q-25 70 -35 127t-10 123l4 63l28 142q31 113 173 231q145 121 350 121q168 0 352 -76q10 -16 20.5 -33.5t20.5 -37.5 q8 -18 20.5 -52t23.5 -80.5t18.5 -103.5t7.5 -121q0 -203 -97 -364q-98 -160 -207 -205q-113 -47 -145 -47q-35 0 -55 24l-60 82q-43 59 -72.5 143.5t-29.5 157.5q0 66 20 121q10 29 22.5 48.5t23.5 29.5l45 43q16 10 53 10q33 -4 45 -15t12 -30q0 -18 -18 -31l-19 -10 l-2 27l-4 16q-6 6 -14 10q-23 4 -39 -12t-16 -43q2 -27 12 -51q31 -43 88 -43q33 0 72 20q35 20 53 55.5t18 65.5q0 27 -13 52.5t-37 45t-53.5 31t-62.5 11.5q-49 0 -120 -33q-74 -31 -122 -123t-48 -211q0 -102 34 -211q45 -113 123 -211q80 -98 135 -143q53 -47 158 -101 l-104 -18l-115 -6q-123 0 -219 33q-96 31 -121 84q-23 55 -23 73q0 23 7 35l14 25q-8 6 -35 6q-55 0 -104 -43q-45 -43 -56 -84l-12 -55v-48q0 -41 4 -66.5t10 -51.5q18 -53 62 -72l16 -2q16 4 17 39q4 20 11 35.5t15 25.5q41 23 62 23q14 0 110 -29q94 -31 192.5 -49 t205.5 -18q152 0 284 34q129 33 160 84q31 49 31 64q0 33 -34 53.5t-81 20.5l-186 4q-66 2 -142 49q92 37 161 74.5t121 77.5t89 81t68 82q51 78 69 148q27 70 43 202q47 55 62 84q10 18 12 30.5t2 37.5l-2 41q0 45 -6 67q-8 27 -55 125q-45 102 -228 205q-90 51 -161.5 82 t-131 48.5t-106.5 22.5t-86 5q-53 0 -89 -6t-73 -15q-39 -10 -72.5 -21t-62.5 -26q39 55 139 101q57 25 103.5 35t99.5 10l65 -6l60 -17q29 -10 67 -41q20 -16 35 -30.5t23 -24.5q35 -10 66.5 -23.5t60.5 -27.5l133 -72q-33 72 -77 129t-118 109q-74 55 -175 85.5t-208 30.5 q-86 0 -160 -19t-135 -54q-82 -49 -147.5 -100.5t-114.5 -109t-81.5 -125t-49.5 -151.5q-18 -82 -25.5 -149.5t-7.5 -116.5z" />
<glyph unicode="r" horiz-adv-x="1667" d="M35 63q0 -43 27.5 -62t54.5 -19q33 0 56.5 22.5t23.5 56.5q0 18 -23 70q-23 55 -22 86q0 33 34 39q45 0 45 -51l-8 -80q0 -53 26.5 -87t69.5 -34l318 6l-14 604l419 275q14 10 18.5 15t8.5 11q0 10 -25 27l-36 29q-18 14 -50 28l-112 -77l-244 -154l-2 506l18 156 q88 12 181 12l211 2q117 0 164 -41t47 -100q-2 -16 -4.5 -32t-6.5 -30q-6 -25 -39 -76q-31 -51 -77 -51q-18 2 -66 25q-12 6 -33.5 18t-64.5 29q-59 23 -101 28q-49 -29 -102 -55t-111 -53q223 -23 351 -80q127 -55 252 -225q123 -168 171 -295t48 -225q0 -117 -47 -142 q-47 -22 -70 -22h-2q-45 0 -107 84q-59 86 -122 86q-33 0 -51.5 -9.5t-26.5 -24.5t-9.5 -36.5t-1.5 -46.5q-62 -7 -62 -50q0 -4 1 -9q0 -37 17.5 -47.5t37.5 -10.5q23 0 45.5 14.5t28.5 32.5l6 27q0 18 -12 53l-12 43q0 18 24 25h5q47 0 81 -135q37 -139 111 -168 q76 -29 96 -29l21 2l30 2q86 14 151.5 80t65.5 238q0 111 -36.5 229.5t-118.5 247.5q-47 72 -79 115.5t-48 64.5l-113 119q244 195 244 358v25q-27 143 -150 155q-61 8 -150 11.5t-208 3.5l-584 -17q-12 -8 -35 -26l-43 -37l41 -82q16 -41 29.5 -111.5t24 -169t15.5 -249 t5 -357.5q0 -111 -4 -181.5t-10 -105.5q-14 -69 -55 -69h-1q-27 4 -41 51q-14 49 -52 65.5t-77 16.5q-57 0 -86.5 -29.5t-29.5 -58.5q2 -29 10 -47l41 -58q-27 14 -45 15q-45 0 -45 -54z" />
<glyph unicode="s" horiz-adv-x="1503" d="M29 229q0 -119 157 -190q156 -68 404 -68q49 0 133 7.5t207 21.5q246 29 389 141q145 117 145 269l-10 57q-10 -41 -22.5 -71.5t-22.5 -51.5q-20 -39 -74.5 -88t-120.5 -80q-33 -16 -69.5 -22.5t-91.5 -6.5q-35 0 -92 11l-60 12q-27 -4 -63 -27q-20 -12 -56.5 -23 t-82.5 -18.5t-98 -12.5t-105 -5q-117 0 -209 35q-88 39 -88 104q2 31 37 78q23 29 92 49.5t180 20.5q233 20 233 141q0 57 -25.5 76.5t-68.5 19.5l-53 -6l-66 -4q-57 0 -65 37q-8 33 -23 33q-25 0 -30 -37q-1 -7 -1 -14q0 -41 42 -68q51 -31 51 -43q0 -29 -8 -31 q-4 -2 -62.5 -10t-175.5 -25q-227 -29 -227 -211zM94 1264q0 -70 92 -140q88 -68 351 -186q137 -63 226 -107.5t155 -82.5q127 -78 165 -164q43 -90 43 -144q0 -78 -51 -135q-49 -55 -96 -55q-33 0 -47 18l12 -4q12 -4 21 -4q27 0 32 29l4 22q0 27 -18 37t-41 10 q-33 0 -49 -10q-14 -4 -32.5 -27.5t-18.5 -48.5q-1 -4 -1 -7q0 -33 49 -63q54 -34 159 -36q86 0 163.5 30.5t126.5 82.5q49 53 67.5 95t18.5 95q0 47 -20 88q-51 106 -295 229l-473 234q-210 117 -210 208q0 7 1 13q12 82 131 115q117 33 283 33l71 -3l91 -10 q74 -10 95 -22.5t21 -42.5q-2 -33 -112 -68q-106 -33 -107 -121q0 -43 36 -80.5t81 -37.5q39 0 69 30q18 18 27 25q2 2 10 6q8 -2 15 -31q12 -31 35 -30q25 4 37 27.5t12 55.5q0 49 -27 74t-41 25q-29 0 -53 -66q-29 -66 -43 -65q-12 2 -26.5 16t-14.5 49l2 29q6 20 27 51 q20 33 161 33t164 47q20 41 21 66q0 92 -142 159q-139 70 -383 70q-162 0 -286 -23q-100 -10 -189.5 -36.5t-156 -65.5t-105.5 -86q-37 -45 -37 -95v-5z" />
<glyph unicode="t" horiz-adv-x="1609" d="M37 1251q0 -70 67 -114q35 -23 76 -45.5t90 -44.5q98 -47 99 -78l-11 -33v-14q6 2 15 6q10 4 18 9t17 9q47 29 61 45q16 29 16 49q-2 20 -28 70q-25 45 -25 72q0 29 23.5 58.5t105.5 76.5q63 33 119 46q58 13 116 16q35 2 71 2q23 0 49 -1q21 -1 44 -1q45 0 95 3 q209 0 235 -16q14 -10 18.5 -15t8.5 -12q0 -10 -25 -10l-260 12l-190 17q-68 0 -133.5 -17.5t-124.5 -54.5l-35 -33q8 -4 10 -4q27 -6 62 -12q74 -16 110 -141q39 -123 39 -551q0 -92 -2 -137.5t-6 -88.5q-8 -66 -43 -124q-33 -57 -56.5 -82t-37.5 -35q0 -2 2 -4t14 -6 l98 -48q78 -38 273 -38h10q80 0 145.5 13t113.5 38.5t74.5 64.5t26.5 92q0 104 -84 105q-29 0 -61 -12q-43 -16 -70 -17q-49 0 -49 41q0 20 17 49q14 14 18 17.5t10 5.5q6 -8 6 -31q6 -27 41 -26q29 6 39 34q8 31 -16.5 48.5t-61.5 17.5q-31 0 -58.5 -11.5t-49 -30 t-34.5 -41t-13 -46.5q2 -29 26 -60q29 -25 70 -36l57 -19q16 -10 17 -22q0 -16 -19 -35l-32 -19q-6 -2 -48 -2q-139 0 -174 189q-16 96 -25 211.5t-9 253.5q0 365 63.5 416t487.5 51q25 0 45 4t41 12q43 18 43 37q0 51 -64 84q-27 14 -80 37.5t-129 54.5t-145.5 50.5 t-143 29.5t-176 16t-237.5 6q-190 -14 -342 -94q-147 -78 -176 -125t-29 -82z" />
<glyph unicode="u" horiz-adv-x="1720" d="M47 817q0 -193 41 -297q20 -51 56 -115.5t87 -146.5q102 -160 254 -231q147 -70 271 -70q129 0 241 53l179 137l77 -41q45 -27 82 -67q43 -43 70 -43q25 4 31 35l18 112q14 66 14 263q0 90 -5 186t-15 201q-10 106 -19.5 190t-19.5 147l-31 170q0 14 6 31l62 -18 q25 -8 65 -8l78 10q55 12 70 33q12 18 39 112l24 37q14 12 41 12l27 4l-14 37q-18 29 -50 29q-43 0 -67 -61q-25 -59 -51.5 -85t-71.5 -26q-39 0 -80 10l-186 68q-111 28 -134 28h-1q-18 0 -19 -12l19 -43q10 -18 22 -42.5t25 -57.5q14 -31 27.5 -77t23.5 -107 q22 -120 22 -229v-9q0 -125 -21.5 -234.5t-62.5 -214.5q-84 -209 -163 -268q-43 -35 -74 -53.5t-53 -24.5q-49 -16 -107 -16q-133 0 -260 96q-123 96 -133 170q92 -98 176 -137q80 -39 270 -39h72q63 0 96 21q35 23 82 102q-307 0 -364 6q-66 8 -181 68q-117 68 -210 260 q-49 100 -71 193t-22 192q0 143 54 225q29 41 63.5 53.5t83.5 12.5l41 -5l66 -2q86 0 108 72l27 64l24 45q-2 10 -12 16t-22 6t-74 -37q-50 -29 -78 -29q-6 0 -10 1q-8 4 -18.5 8t-20.5 8q-16 8 -28.5 13t-20.5 10q-51 30 -131 30h-5q-25 0 -45 -7t-37.5 -25.5t-33 -51.5 t-33.5 -84q-8 -18 -12 -29.5t-7.5 -19.5t-4.5 -16t-3 -23l-30 -180q-10 -76 -16.5 -149.5t-6.5 -145.5zM1270 291l55 125q8 20 18.5 45.5t14.5 40.5l16 82l12 -269l-8 -90z" />
<glyph unicode="v" horiz-adv-x="1583" d="M74 1413l4 -113l39 -186q33 -147 145 -309q111 -160 316 -395q207 -236 206 -299q-2 -16 -6 -30.5t-8 -31.5q-16 -35 -57 -35q-27 2 -49 15q-25 18 -66 104q-20 43 -52 61.5t-77 18.5q-78 0 -115 -92q-31 -79 -52 -79q-3 0 -5 1q23 -47 55 -47q35 4 67 30.5t46 49.5 q20 25 47 22l121 -129q74 -68 121 -69l86 -9q82 0 128 37t46 97q0 86 -195 299q-102 109 -166.5 182.5t-111.5 128.5q-84 104 -135 235q-35 86 -50 160q-20 94 -20 205q0 57 18.5 97t40.5 40q23 -2 68 -35q42 -30 104 -30h4q33 0 58.5 12t43 27.5t27 31t9.5 23.5l2 35 q0 44 -26 74q-23 27 -54 26h-8q-57 -12 -58 -49q4 -35 25.5 -51.5t27.5 -22.5q-2 -14 -38 -37l-43 -4q-53 0 -129 72q-74 72 -126.5 99.5t-91.5 27.5q-49 0 -82.5 -42t-33.5 -116zM846 324l78 -88l98 -123v131q0 156 33 286q33 135 159 367q125 229 271 455 q72 113 114.5 173t55.5 70q25 20 51.5 67.5t26.5 96.5q0 88 -86 88q-39 -4 -65 -12t-52 -8q-33 0 -41 18.5t-2 36.5q6 -27 14 -33t29 -2q2 0 16 8q2 0 7.5 4.5t9.5 22.5q6 31 -10.5 48.5t-47.5 17.5t-55.5 -26t-24.5 -67q0 -61 31 -100q35 -33 39 -55l6 -31q0 -49 -53 -49 q-31 2 -47 16l-25 19l-4 -6l6 -33l8 -31q0 -12 -12 -43l-39 -86l-92 -196q-154 -309 -239.5 -509t-114.5 -286q-18 -55 -27.5 -86t-15.5 -55z" />
<glyph unicode="w" horiz-adv-x="1687" d="M37 1278q0 -47 7 -100.5t19.5 -109.5t30 -112.5t37.5 -107.5q43 -104 131 -248q92 -152 184 -268q94 -119 95 -148q0 -20 -25 -84q-29 -65 -84 -65h-2q-63 10 -63 108q0 23 4 48.5t10 60.5l14 72q0 29 -13 51t-34 43l-8 8q-14 0 -27 -66q-41 -127 -41 -217 q0 -100 42 -152t102 -52l55 6q39 6 84 60t72 165l24 90q-152 217 -151 238q2 20 41 100q41 78 157 78q121 0 215 -119q98 -119 134 -203q39 -86 67 -239q106 215 107 250l-7 24l-38 90q-18 37 -41 73t-53.5 74t-70.5 81t-91 94q-104 106 -119 272q-16 174 -27 193 q-12 23 -39 22q-23 -4 -35 -21.5t-6 -45.5l23 -97q2 -8 3 -19t1 -28q0 -53 -27 -86l-209 -270l-65 -96q-41 82 -69.5 146.5t-45.5 111.5q-18 49 -28.5 89t-20.5 95q-4 29 -6 46t-4 26v41q0 57 22.5 94t73.5 37q45 0 86 -19l61 -22l50 -6q31 2 47 16q18 18 18 55q0 18 -7 37 t-14.5 34t-14.5 28.5t-7 19.5q0 14 12 14l27 -4q27 0 27 31q1 6 1 12q0 43 -53 43q-55 0 -61 -67q-6 -66 -27 -68q-16 0 -75 53q-60 51 -105 74q-35 18 -74 19q-80 0 -138 -71t-58 -212zM977 1337q0 -39 25.5 -60.5t48.5 -27.5l39 -6q55 0 114 49l68 78q33 39 69 39 q43 0 75 -55.5t32 -136.5q0 -86 -3 -146.5t-7 -95.5l-56 -242q-25 -92 -52 -177t-60 -163q-70 -166 -203 -383q98 0 145 6q53 10 88 27q39 18 123 86q84 70 103 70q25 0 38 -14.5t13 -51.5q-6 14 -23 21q-14 10 -34 10q-29 0 -52 -23q-14 -20 -14 -43q0 -29 20.5 -48 t49.5 -19l41 8q35 12 55 39q25 33 25 76q-6 68 -46 98q-34 25 -73 25q-7 0 -13 -1q-31 0 -86 -14t-110 -43l151 377q12 33 28.5 88t39.5 141q20 76 33.5 132.5t19.5 95.5q12 43 19.5 90t13.5 102l20 144l5 32q0 39 -24 51.5t-93 12.5q-55 0 -76 26q-12 16 -26.5 27.5 t-26.5 17.5l-29 13l-33 6q-39 0 -79.5 -36t-69.5 -99q-27 -61 -56.5 -90t-43.5 -35h-25q4 4 18.5 12t14.5 43q0 51 -51 51q-53 -10 -64 -45z" />
<glyph unicode="x" horiz-adv-x="1568" d="M82 1397q0 -72 51 -131q51 -61 242 -183l135 -90l-166 -194q-47 -63 -86 -125t-68 -125q-57 -123 -77.5 -206t-20.5 -148q0 -133 68 -185q70 -51 147 -51q76 0 129 102q61 106 117 160l-53 -4q-10 -4 -29 -31l-37 -49q-23 -23 -45 -22q-45 6 -63.5 47t-18.5 86 q0 92 63.5 224t213.5 304l96 101q119 -84 187.5 -133.5t88.5 -65.5q29 -27 80 -83t125 -149l31 -57l22 -55q12 -27 14.5 -44.5t2.5 -51.5q0 -45 -14.5 -85t-38 -70t-56 -47.5t-69.5 -17.5l-68 5q-59 10 -59 96q0 90 -39 90q-29 -2 -60 -16q-4 -2 -10 -4.5t-16 -6.5 q-4 -2 -8 -2t-11 -2l-24 -2q-23 2 -27 8l-6 31l-4 25l-8 -4q-14 -10 -20.5 -21.5t-6.5 -40.5t12.5 -46t28.5 -17q10 2 24.5 9t31 17t26.5 15.5t18 9.5q16 -4 23 -33q12 -109 45 -141q27 -39 65.5 -55.5t75.5 -16.5q49 0 99.5 22.5t72.5 51.5q25 29 60 41t84 12l37 -4l53 -2 q31 0 45 13t14 65q0 113 -88 264q-88 156 -229 266q-72 57 -147.5 113.5t-162.5 113.5l-307 205q-76 51 -124 85t-70 52q-51 45 -51 105q0 55 69 55q80 14 123 21.5t64 13.5q39 12 45 66q-29 -37 -62 -37q-33 2 -57 20q-31 25 -31 53q0 35 23 35q20 2 20 17q0 13 -22 29 q-18 12 -42 13q-6 0 -12 -1q-45 0 -60 -18.5t-15 -51.5l8 -47q-111 31 -170 31q-121 0 -121 -121zM608 1085q0 -18 70 -51l55 -41q10 -6 18.5 -12t16.5 -10q4 0 6 -2l68 47q74 51 239 108l314 109q105 47 105 107q0 5 -1 10q-8 51 -110 51l-66 -6q-35 0 -55 10 q-20 14 -21 39q4 27 19 41l14 -25q8 -8 23 -8q20 0 24 18.5t4 28.5q0 18 -16 29q-25 12 -62 12q-39 0 -70.5 -11t-54 -28.5t-35 -38t-12.5 -39.5q0 -47 74 -67q76 -27 82 -43q6 -25 -11.5 -33t-56.5 -8q-57 0 -102 16q-20 8 -41.5 23t-48.5 35l-313 -211q-55 -41 -56 -50z " />
<glyph unicode="y" horiz-adv-x="1761" d="M59 1208q0 -174 144 -360q141 -184 389 -285l346 -127l-102 -102q-254 -260 -342 -379q-92 -127 -101 -188v-19q0 -43 20.5 -61.5t59.5 -18.5q29 0 82 17l164 55q117 43 168 43q57 0 114 -57q31 -33 71 -63t83 -30q74 0 127 99q12 37 23 45l18 6l16 -6l21 -4q14 2 24 12 l7 27q0 43 -37 43q-51 0 -76 -52q-35 -66 -55 -73q-16 -16 -43 -17q-49 0 -70 62l-45 121q-10 12 -29 12l-53 -8l-68 -11q-29 -4 -49 31q-15 25 -15 48q0 7 1 14l29 81l34 48q70 113 211 196l258 139q72 39 124.5 81t86.5 87q39 53 60.5 126t21.5 161q0 72 -24 143 q-12 37 -37 69t-58.5 54.5t-72.5 36t-80 13.5q-119 0 -160 -60q-39 -61 -41 -82l-6 -43q0 -43 23 -71q27 -31 57 -31q33 0 52.5 22.5t19.5 51.5q-2 25 -17 34l-20 9l-33 -13h-14l10 33q12 27 41 43t55 16q33 -4 46.5 -12t17.5 -29q2 -4 2 -9q0 -40 -92 -156l-166 -205 l-86 -105l-187 54l-137 53q-104 41 -235 182q-129 141 -129 250q0 51 28 86q33 45 58 53q27 14 61 15l72 -11q29 -4 50 -6t32 -2l41 4q55 16 63 25l14 22q-16 0 -34.5 4t-35 14.5t-28.5 28t-18 45.5q0 57 18 71.5t35 17.5l-4 4l-13 8l-26 8q-6 2 -31 2q-43 0 -70.5 -18.5 t-27.5 -55.5q0 -47 -43 -47q-18 2 -52 11.5t-61 17.5q-86 27 -141 27l-68 -9q-39 -14 -71 -39q-45 -33 -70 -87t-25 -130zM1130 1382q6 -33 15.5 -51t25 -27.5t40 -11.5t61.5 -2h43q121 0 143 -30q20 -29 82 -56q61 -25 90 -65l13.5 -13.5t15.5 -17.5q2 -2 3 -4t5 -6 q12 0 31 41q12 27 20 48t19 60q18 63 18 127q0 47 -14 84.5t-47 57.5t-72 20q-49 0 -176 -57.5t-162 -57.5t-37 9l10 30q-4 14 -17 25.5t-30 11.5q-31 0 -55.5 -31.5t-24.5 -83.5zM1204 471l170 207l162 209l6 -51q0 -51 -22.5 -105.5t-73.5 -112.5q-29 -29 -58.5 -52 t-62.5 -40z" />
<glyph unicode="z" horiz-adv-x="1591" d="M43 1292q0 -59 41 -105t152 -63q55 -6 88.5 -13t50 -16.5t20.5 -20.5t2 -30q-12 -33 -49 -32l-37 8q6 -35 64 -35l43 8l47 29q35 35 35 70q0 57 -54 86q-53 31 -64 47t-11 32l4 27l22 39q23 29 97 49q68 20 176 21q41 0 90 -6.5t86 -14.5q47 -10 89 -23.5t77 -29.5 q-135 -100 -218 -163.5t-114 -92.5q-35 -33 -84 -84t-109 -123q-131 -152 -186 -235l-102 -170q-25 33 -25 92v37q-20 -6 -39.5 -33t-19.5 -66q0 -80 39 -127q-41 -76 -62.5 -150.5t-21.5 -166.5v-23l2 -28q145 -27 233 -27q37 0 78 4t90 10l6 68q0 66 -35 145 q98 -72 320 -149q215 -76 405 -76q68 0 129.5 12.5t108.5 41t74.5 74.5t27.5 112q0 76 -28 110q-29 37 -111 90q-84 59 -84 74q2 10 10.5 21.5t17.5 22.5t16 20.5t7 15.5q0 20 -24 49q-23 31 -43.5 35t-26.5 4q-16 0 -20 -2q31 -29 30 -45q-4 -23 -49 -41q-61 -37 -61 -66 q2 -16 22 -47l47 -59l45 -57q16 -23 17 -39q0 -27 -37 -54q-37 -25 -75 -34t-101 -9q-33 0 -65.5 4.5t-73.5 12.5l-201 51q-63 16 -117.5 34.5t-101.5 37.5l-148 61q-8 -2 -16 -20l-21 -37l-30 -80q10 -12 20 -32.5t17.5 -43t12.5 -45t5 -37.5q-23 -8 -51 -8l-58 2 q6 49 19 92l39 119q27 72 123 229q104 166 281 356.5t460 387.5l76 -45l78 -49q76 -49 137 -50q49 0 75.5 43.5t26.5 153.5v41l-2 82l-18 86q-16 41 -27 41q-8 0 -35 -10l-196 -92q-25 -10 -35 -19q-2 -2 -10 -6q2 -14 45 -37l57 -31l78 41l49 25q10 0 10 -35v-53v-25 q0 -33 -12 -32q-14 0 -170 83q-158 88 -350 140q-201 53 -367 53q-111 -4 -206 -23.5t-165.5 -55.5t-110.5 -88t-40 -120z" />
<glyph unicode="&#xad;" d="M198.5 710.5q6.5 -22.5 47.5 -22.5l80 -2h67l39 4q-4 4 -9 6t-32 9l-41 12q8 4 18.5 5t61.5 1q43 0 104.5 -8t139.5 -24.5t127 -26t81.5 -15.5t54 -10t44.5 -8q41 -14 82 -15l31 2q127 0 223 25q96 29 123 72q27 45 26 65q0 16 -11 26.5t-42 10.5l-82 -16 q-45 -8 -66.5 -10.5t-60.5 -2.5l-61 3l-53 6l-222 47q-111 25 -188.5 39t-128.5 22l-66 10l-26 7q-6 -8 -20.5 -14.5t-73.5 -16.5q-4 -4 -27 -25.5t-64 -58.5q-82 -74 -75.5 -96.5z" />
<glyph unicode="&#xc4;" horiz-adv-x="1814" d="M63 154q0 -76 50.5 -114t132.5 -38q143 0 246 68q51 35 98 70.5t92 72.5q88 72 203 238l45 63q-213 -66 -238 -92l-69 -76q-90 -82 -146 -115q-53 -35 -145 -34q-70 0 -103 20q-29 23 -28 51q0 20 12 42t12 40q0 25 -22.5 38t-40.5 13t-39 -12l39 -29q14 -12 14 -22 q-2 -14 -59 -68q-53 -53 -54 -116zM237.5 1413q-12.5 -65 96.5 -100q111 -31 110 -53q0 -16 -4 -22.5t-10 -9.5t-13 -5t-14 -9q2 -18 43 -18l50 6q33 6 32 41q-2 12 -9 29.5l-14 35t-13.5 34t-6.5 26.5q0 39 50 45l102 12q8 2 18.5 3.5t24.5 5.5h78q109 0 192 -54 q-131 -31 -225 -88q-92 -53 -205 -166q-215 -217 -215 -434q0 -74 24.5 -118t64.5 -69.5t92.5 -34.5t107.5 -11q94 0 207 33q115 33 162 61l182 125q72 51 112.5 84t55.5 47q29 29 41 29q4 -2 5 -6.5t1 -22.5q0 -20 12 -27l21 -8q27 0 45 24.5t18 53.5q-4 31 -20 61 q-23 37 -74 37q-35 0 -80 -28q-29 -18 -61.5 -44t-73.5 -59l106 287l39 -107q14 -25 31 -24l31 2l32 -6l41 -17q49 -47 50 -98q0 -63 -43 -82q-23 -10 -31 -18l-4 -4t-6 -7l30 -108q20 -49 37 -154q10 -20 17 -59l6 -84q0 -63 -21.5 -102t-79.5 -39l-69 8q-10 2 -26.5 3 t-39.5 1q-59 0 -90 -22.5t-31 -82.5q0 -43 29 -61q31 -16 31 -27q0 -4 -6 -12l-13 8q-8 -2 -8 -20q0 -53 53 -53q37 0 60.5 19.5t23.5 41.5q0 31 -22 49l-41 33q-10 8 -12 13t-4 9q0 10 13 17.5t23 7.5q23 0 46.5 -12.5t58.5 -40.5q16 -14 40.5 -29.5t39.5 -23.5 q41 -20 92 -21q49 0 94 33q49 33 66.5 75t17.5 107q0 106 -45 236q-20 53 -38.5 108t-39.5 111q-25 66 -41 109.5t-24 68.5q-49 127 -81 214t-46 134q-27 92 -27 129q0 43 25 74q29 29 73 29q31 0 84 -19q-53 92 -100 109q-47 18 -252 18q-285 0 -463 -7t-282 -24 q-201 -31 -213.5 -96zM520 750l8 79l23 70l22 49l45 66q117 123 237 187t206 93l-6 97q55 -59 55 -166q0 -39 -7 -83t-25.5 -97.5t-50.5 -119t-81 -145.5q-98 -160 -135 -190q-37 -29 -100 -37q-106 0 -148.5 55.5t-42.5 141.5zM635 1735q0 -47 39 -81t90 -38q57 0 102 23.5 t52 70.5q0 39 -60 62q-59 24 -86 51q-16 12 -37 12q-37 0 -61 -25q-31 -25 -35 -45zM1036 1745q0 -47 39 -81t90 -34l23 -2q49 0 88 27q37 27 37 71q0 39 -56 56q-57 22 -88 49q-14 14 -39 14q-14 0 -31.5 -8t-29.5 -16q-29 -29 -31 -43z" />
<glyph unicode="&#xca;" horiz-adv-x="487" />
<glyph unicode="&#xcb;" horiz-adv-x="1910" d="M59 1470q0 -66 58 -96q59 -35 59 -223l8 -305q37 20 62.5 31.5t42.5 15.5q39 16 78 16l22 498l569 14q80 0 121 -4t56 -10q35 -16 34 -41q-2 -16 -67.5 -75.5t-65.5 -100.5l6 -39q8 -25 28 -41t69 -16t147 18q37 0 37 -25l-14 -45q-8 -18 6 -18l59 20q41 23 41 35l2 27 q0 61 -102 61q-102 6 -103 25q6 18 61.5 49t125.5 53q74 31 104.5 63t30.5 66q-4 29 -21.5 50.5t-62.5 44.5q-111 39 -164 38q-20 2 -147 3.5t-363 1.5l-444 -9l-205 -10q-63 0 -66 -12q-2 -6 -2 -60zM129 649q0 -117 115 -219l213 -160l133 -90l51 -37q-8 -2 -41 -2 q-35 0 -60.5 7.5t-47.5 23.5q-47 33 -68 68l-35 49l-33 24l-149 111l-12 -240q2 -20 17 -28.5t33.5 -17.5t36 -25.5t25.5 -51.5q18 -45 60 -45l1034 -16q199 0 288 42t89 128q0 68 -64 100q-61 37 -61 52l-2 26q2 27 22.5 36t75.5 24q57 16 81.5 24t37.5 19q35 23 35 90 q0 45 -21 67q-16 23 -84 45q-63 20 -63 54q0 31 -19 30q-20 -4 -35.5 -15t-15.5 -40q4 -29 20.5 -49.5t16.5 -38.5q-6 -29 -176 -63.5t-170 -131.5q0 -70 108 -116q111 -47 99 -93q-6 -39 -48 -53t-143 -14l-137 6l-197 21q-72 12 -139.5 26t-140.5 37q-78 23 -143.5 59.5 t-118.5 83.5q-104 92 -121 129q-12 33 -13 154v106q147 0 254 6.5t172 20.5q135 27 160 94.5t25 89.5q0 18 -12.5 61.5t-124.5 61.5q-117 20 -117 33q0 16 24 27l27 16l-2 8q-2 2 -2 4q-6 5 -14 9l-27 6q-35 0 -64.5 -27t-29.5 -55q2 -12 11 -26.5t18.5 -29t16.5 -27.5 t7 -22q0 -53 -170 -82q-86 -14 -151.5 -29.5t-116.5 -35.5q-102 -37 -117 -174v-25zM487 1743q-6 -51 32 -87t93 -40h19q53 0 88 22q39 27 39 68q0 39 -56 57q-57 22 -84 49q-16 12 -34 13q-18 0 -37 -9.5t-25 -15.5q-29 -29 -35 -57zM1049 1743q-4 -53 30 -86 q41 -37 95 -41h18q53 0 88 22q37 27 37 68t-55 59q-53 18 -82 47q-12 12 -35 13q-18 0 -36.5 -9.5t-23.5 -15.5q-31 -27 -36 -57z" />
<glyph unicode="&#xcf;" horiz-adv-x="669" d="M-57 1743q-4 -51 32.5 -87t90.5 -40h18q55 0 90 22q37 27 37 68q0 39 -55 57q-53 22 -84 49q-12 12 -35 13q-16 0 -34.5 -9.5t-22.5 -15.5q-31 -27 -37 -57zM47 82q2 -14 6 -24.5t8 -20.5l41 -37q2 -2 5.5 -6t11.5 -12q2 0 6 -5q-2 -2 -5 -7t-7 -7l-11 -14q2 -8 56 -8 q49 6 49 30q0 10 -29 45q-14 16 -19 26.5t-9 18.5q2 8 16 15q10 0 51 -19q20 -12 47 -21t51 -16q27 -6 42.5 -8t43.5 -2q63 0 111 19q41 25 41 55q-4 27 -61.5 115t-57.5 286v37t-2 51q-2 31 -2 54v41v200q0 125 18.5 205t61.5 180q45 98 45 162q0 144 -131 162h-21 q-55 0 -88.5 -28.5t-33.5 -84.5q0 -43 24.5 -68.5t59.5 -25.5q27 0 47 10l30 31q12 14 13 35q-2 12 -25 53l12 4q20 -4 35 -24q18 -29 19 -58q0 -47 -50 -98q-49 -61 -143 -61t-104 -29l-6 -31q4 -14 22 -37.5t45 -83.5q14 -33 24.5 -65.5t14.5 -67.5q8 -31 8 -129v-24v-33 v-39v-47q0 -328 -22 -400q-23 -68 -113 -96q-86 -27 -109 -45q-16 -16 -16 -53zM504 1743q-6 -51 28 -86q41 -39 97 -41h16q53 0 88 22q37 27 37 68t-53 59t-82 47q-16 12 -37 13q-16 0 -34.5 -9.5t-24.5 -15.5q-29 -29 -35 -57z" />
<glyph unicode="&#xd6;" horiz-adv-x="1638" d="M84 922q0 -100 39 -211q-4 -25 -4 -41v-35l-2 -86q0 -49 4 -88t10 -80q8 -39 20.5 -76t32.5 -72q51 -100 121 -153q70 -51 170 -82q98 -33 295 -33q147 0 292.5 27.5t258.5 95.5q115 68 172 200t57 287q0 45 -4 84t-10 82q-16 86 -48 174.5t-91 182.5 q-43 72 -106.5 147.5t-138.5 143t-158 123t-167 83.5l-77 -39l-70 -34l-105 -72q-82 -57 -155 -143q72 -10 102.5 -28.5t65.5 -47.5l67 63q43 43 138 76q121 -20 317 -199q195 -176 225 -303l43 -163q8 -25 8 -91q0 -92 -34.5 -176t-100 -131t-147.5 -72.5t-180 -25.5 q-119 0 -245 48t-239 142q-109 94 -186 246q-76 150 -76 264q0 76 25 111l37 43q12 12 28 18q-20 -20 -36.5 -48.5t-22.5 -55.5l-8 -43l-2 -39q0 -35 22 -96l43 -99l55 181q29 86 62 145t59 55q33 -6 40 -30.5t7 -83.5v-23q0 -59 11 -110q12 -43 40.5 -66t57.5 -23 q35 4 59 25q31 31 47 78q39 98 74 98q16 -2 25 -10l16 -10q4 6 5 11t1 21q-2 27 -20 52q-23 16 -37 16l-33 -14q-27 -14 -57 -97q-18 -45 -30.5 -60t-25 -7t-12.5 47q0 4 1 11t3 18v26v29l4 70l-6 65q-10 41 -28.5 79t-65.5 62q-45 29 -104 29q-37 0 -75 -12t-73 -31 q-78 -43 -121 -108q-35 -59 -47 -94t-12 -117zM250 426q10 -2 57 -80q92 -127 172 -172q80 -43 209 -86q-139 0 -248 59q-109 62 -166 197l-20 53q-4 12 -4 29zM408 1696q-6 -53 32 -90q39 -35 68 -37l45 -4q43 0 84 24q39 27 39 70q0 37 -53 53q-57 22 -84 49 q-14 14 -37 15q-29 -2 -60 -27q-29 -29 -34 -53zM956 1714q-6 -53 32 -91t91 -38h17q49 0 88 25.5t39 64.5q0 37 -54 56q-53 20 -84 51q-16 10 -34 10q-31 0 -60 -23q-29 -29 -35 -55z" />
<glyph unicode="&#xdc;" horiz-adv-x="1871" d="M96 819q0 -199 37 -293q39 -96 148 -264q106 -168 249 -239q143 -68 271 -68q133 0 243 53l179 139l84 -45q31 -16 71 -65q43 -43 72 -43q27 0 35 39l14 110q14 70 14 265q0 29 -3 73.5t-7 108t-6 114t-2 87.5q-23 223 -43 344l-29 161q0 12 7 31l57 -18q25 -8 63 -9 l80 11q55 12 72 37q8 12 18.5 38.5t20.5 67.5q18 41 33 41l34 6l29 4l-16 33q-18 33 -49 33q-47 0 -66 -47q-23 -68 -51.5 -95.5t-73.5 -27.5q-35 0 -113 22l-151 54q-115 29 -135 28q-18 0 -19 -10l19 -43l49 -102q31 -68 49 -181q20 -100 20 -235q0 -125 -21.5 -234.5 t-61.5 -214.5q-84 -209 -164 -268q-43 -33 -74 -52.5t-59.5 -29.5t-46 -12t-54.5 -2q-139 0 -258 94q-121 96 -131 174q88 -96 178 -135q92 -41 269 -41h77q57 0 93 18q31 25 77 105q-303 0 -366 6q-66 6 -178 68q-115 66 -209 260q-49 98 -70.5 192t-21.5 189q0 145 40 204 q43 61 77 73.5t83 12.5l39 -4l64 -2q41 0 69 19q14 8 25.5 25.5t20 37t15.5 38t13 30.5l20 31q-4 12 -16 16q-10 6 -20 6q-20 0 -75.5 -37t-84.5 -31q-43 14 -88 37q-29 20 -59.5 28.5t-75.5 8.5q-47 0 -81 -34t-69 -138q-16 -35 -20 -50t-9 -44l-30 -180 q-10 -66 -15.5 -134.5t-5.5 -144.5zM487 1743q-6 -51 32 -87t93 -40h19q53 0 88 22q39 27 39 68q0 39 -56 57q-57 22 -84 49q-16 12 -34 13q-18 0 -37 -9.5t-25 -15.5q-29 -29 -35 -57zM1049 1743q-4 -53 30 -86q41 -37 95 -41h18q53 0 88 22q37 27 37 68t-55 59 q-53 18 -82 47q-12 12 -35 13q-18 0 -36.5 -9.5t-23.5 -15.5q-31 -27 -36 -57zM1315 285l57 127q39 96 47 166l15 -265l-9 -88z" />
<glyph unicode="&#x2000;" horiz-adv-x="974" />
<glyph unicode="&#x2001;" horiz-adv-x="1948" />
<glyph unicode="&#x2002;" horiz-adv-x="974" />
<glyph unicode="&#x2003;" horiz-adv-x="1948" />
<glyph unicode="&#x2004;" horiz-adv-x="649" />
<glyph unicode="&#x2005;" horiz-adv-x="487" />
<glyph unicode="&#x2006;" horiz-adv-x="324" />
<glyph unicode="&#x2007;" horiz-adv-x="324" />
<glyph unicode="&#x2008;" horiz-adv-x="243" />
<glyph unicode="&#x2009;" horiz-adv-x="389" />
<glyph unicode="&#x200a;" horiz-adv-x="108" />
<glyph unicode="&#x2010;" d="M198.5 710.5q6.5 -22.5 47.5 -22.5l80 -2h67l39 4q-4 4 -9 6t-32 9l-41 12q8 4 18.5 5t61.5 1q43 0 104.5 -8t139.5 -24.5t127 -26t81.5 -15.5t54 -10t44.5 -8q41 -14 82 -15l31 2q127 0 223 25q96 29 123 72q27 45 26 65q0 16 -11 26.5t-42 10.5l-82 -16 q-45 -8 -66.5 -10.5t-60.5 -2.5l-61 3l-53 6l-222 47q-111 25 -188.5 39t-128.5 22l-66 10l-26 7q-6 -8 -20.5 -14.5t-73.5 -16.5q-4 -4 -27 -25.5t-64 -58.5q-82 -74 -75.5 -96.5z" />
<glyph unicode="&#x2011;" d="M198.5 710.5q6.5 -22.5 47.5 -22.5l80 -2h67l39 4q-4 4 -9 6t-32 9l-41 12q8 4 18.5 5t61.5 1q43 0 104.5 -8t139.5 -24.5t127 -26t81.5 -15.5t54 -10t44.5 -8q41 -14 82 -15l31 2q127 0 223 25q96 29 123 72q27 45 26 65q0 16 -11 26.5t-42 10.5l-82 -16 q-45 -8 -66.5 -10.5t-60.5 -2.5l-61 3l-53 6l-222 47q-111 25 -188.5 39t-128.5 22l-66 10l-26 7q-6 -8 -20.5 -14.5t-73.5 -16.5q-4 -4 -27 -25.5t-64 -58.5q-82 -74 -75.5 -96.5z" />
<glyph unicode="&#x2012;" d="M198.5 710.5q6.5 -22.5 47.5 -22.5l80 -2h67l39 4q-4 4 -9 6t-32 9l-41 12q8 4 18.5 5t61.5 1q43 0 104.5 -8t139.5 -24.5t127 -26t81.5 -15.5t54 -10t44.5 -8q41 -14 82 -15l31 2q127 0 223 25q96 29 123 72q27 45 26 65q0 16 -11 26.5t-42 10.5l-82 -16 q-45 -8 -66.5 -10.5t-60.5 -2.5l-61 3l-53 6l-222 47q-111 25 -188.5 39t-128.5 22l-66 10l-26 7q-6 -8 -20.5 -14.5t-73.5 -16.5q-4 -4 -27 -25.5t-64 -58.5q-82 -74 -75.5 -96.5z" />
<glyph unicode="&#x2013;" horiz-adv-x="1365" d="M198.5 710.5q5.5 -22.5 38.5 -22.5l64 -2h54l32 4q-3 4 -7 6t-26 9l-33 12q6 4 14.5 5t49.5 1q35 0 84.5 -8t112.5 -24.5t103 -26t66 -15.5t43.5 -10t35.5 -8q33 -14 67 -15l25 2q102 0 180 25q77 29 99 72q22 45 21 65q0 16 -9 26.5t-34 10.5l-66 -16 q-36 -8 -53.5 -10.5t-49.5 -2.5l-49 3l-43 6l-179 47q-90 25 -152.5 39t-103.5 22l-53 10l-21 7q-5 -8 -17 -14.5t-59 -16.5q-3 -4 -22 -25.5t-52 -58.5q-66 -74 -60.5 -96.5z" />
<glyph unicode="&#x2014;" horiz-adv-x="2390" d="M198.5 710.5q10.5 -22.5 76.5 -22.5l130 -2h108l63 4q-7 4 -15 6t-51 9l-67 12q13 4 30 5t100 1q69 0 168.5 -8t225.5 -24.5t205 -26t131.5 -15.5t87 -10t72.5 -8q66 -14 132 -15l50 2q205 0 360 25q155 29 199 72q44 45 42 65q0 16 -18 26.5t-68 10.5l-132 -16 q-73 -8 -107.5 -10.5t-97.5 -2.5l-99 3l-85 6l-359 47q-179 25 -304.5 39t-207.5 22l-106 10l-42 7q-10 -8 -33.5 -14.5t-118.5 -16.5q-7 -4 -44 -25.5t-103 -58.5q-133 -74 -122.5 -96.5z" />
<glyph unicode="&#x2026;" horiz-adv-x="1638" />
<glyph unicode="&#x202f;" horiz-adv-x="389" />
<glyph unicode="&#x205f;" horiz-adv-x="487" />
<glyph unicode="&#x25fc;" horiz-adv-x="1607" d="M0 0v1608h1608v-1608h-1608z" />
</font>
</defs>
</svg>
